<svg width="25" height="25" viewBox="0 0 25 25" fill="none" xmlns="http://www.w3.org/2000/svg">
<path fill-rule="evenodd" clip-rule="evenodd" d="M15.8838 6.61623C16.1181 6.85064 16.2497 7.16852 16.2497 7.49998C16.2497 7.83143 16.1181 8.14932 15.8838 8.38373L11.7675 12.5L15.8838 16.6162C16.1115 16.852 16.2374 17.1677 16.2346 17.4955C16.2318 17.8232 16.1003 18.1367 15.8685 18.3685C15.6368 18.6003 15.3233 18.7317 14.9955 18.7346C14.6678 18.7374 14.352 18.6114 14.1163 18.3837L9.11626 13.3837C8.88192 13.1493 8.75027 12.8314 8.75027 12.5C8.75027 12.1685 8.88192 11.8506 9.11626 11.6162L14.1163 6.61623C14.3507 6.38189 14.6686 6.25024 15 6.25024C15.3315 6.25024 15.6493 6.38189 15.8838 6.61623V6.61623Z" fill="black"/>
</svg>
