<svg width="70" height="70" viewBox="0 0 70 70" fill="none" xmlns="http://www.w3.org/2000/svg">
<path d="M56.577 34.5203L49.9974 13.851C49.8448 13.4143 49.5714 13.0335 49.2111 12.756C48.8508 12.4785 48.4195 12.3165 47.9708 12.2902H46.0028L52.5824 32.976C52.6487 33.1769 52.6711 33.3904 52.6481 33.6014C52.6251 33.8123 52.5573 34.0154 52.4495 34.196C52.3503 34.3636 52.2112 34.5022 52.0454 34.5984C51.8797 34.6946 51.6928 34.7453 51.5027 34.7456H38.9391L43.7847 55.3104L48.274 61.2238C48.8059 61.9272 49.0772 61.7733 48.8697 60.8995L43.3911 37.6583C43.3319 37.4715 43.3172 37.2727 43.3483 37.0789C43.3794 36.885 43.4553 36.7017 43.5697 36.5447C43.6841 36.3876 43.8335 36.2615 44.0052 36.1769C44.1769 36.0924 44.3659 36.0519 44.556 36.059H55.5398C55.7217 36.0702 55.9032 36.0329 56.0671 35.9508C56.231 35.8687 56.3717 35.7444 56.4758 35.59C56.5799 35.4356 56.6439 35.2561 56.6616 35.0688C56.6793 34.8815 56.6502 34.6926 56.577 34.5203Z" fill="#F0C100"/>
<path d="M36.5189 32.6462C36.6147 32.484 36.7479 32.349 36.9067 32.253C37.0654 32.1571 37.2447 32.1034 37.4285 32.0967H49.8325L43.5294 12.3122H26.8542C26.0085 12.3122 25.7212 12.9167 26.2212 13.6476L33.9498 25.0182C34.4392 25.7491 34.1626 26.3537 33.3115 26.3537H23.3011C22.45 26.3537 22.2 26.9032 22.7319 27.6287L40.3327 50.804L36.3274 33.8113C36.2804 33.6139 36.2731 33.4086 36.3061 33.2082C36.339 33.0078 36.4114 32.8165 36.5189 32.6462Z" fill="#F0C100"/>
<path d="M51.4814 34.7895C51.6715 34.7892 51.8584 34.7386 52.0242 34.6423C52.1899 34.5461 52.329 34.4076 52.4282 34.24C52.536 34.0593 52.6038 33.8563 52.6268 33.6453C52.6498 33.4344 52.6274 33.2208 52.5612 33.0199L46.0028 12.3122L45.0134 9.20714C44.9476 8.96437 44.8094 8.74922 44.6184 8.59233C44.4274 8.43545 44.1934 8.34481 43.9496 8.33333H19.7267C19.5021 8.34023 19.2845 8.41531 19.101 8.54921C18.9175 8.68311 18.7762 8.86989 18.6948 9.08624C18.6002 9.3149 18.5624 9.56432 18.5847 9.8119C18.607 10.0595 18.6887 10.2974 18.8224 10.5041L26.8861 22.3693H16.1682C15.9344 22.3722 15.7071 22.4491 15.5169 22.5896C15.3267 22.7301 15.1827 22.9275 15.1044 23.1552C15.0121 23.39 14.9802 23.6456 15.0119 23.897C15.0436 24.1484 15.1378 24.387 15.2853 24.5896L42.8113 60.7786C42.9113 60.9181 43.041 61.0318 43.1905 61.1109C43.34 61.1901 43.5051 61.2324 43.673 61.2348C43.8628 61.2343 44.0482 61.175 44.2049 61.0644C44.4425 60.9033 44.6248 60.669 44.726 60.3947C44.8272 60.1204 44.8422 59.8202 44.7687 59.5366L38.9338 34.7895H51.4814ZM41.2263 54.7004L18.7001 25.0237H29.2371C29.4675 25.0214 29.6918 24.9479 29.8814 24.8128C30.071 24.6776 30.2171 24.487 30.3009 24.2653C30.3962 24.0375 30.4339 23.7884 30.4107 23.5414C30.3874 23.2944 30.3039 23.0575 30.168 22.8529L22.099 10.9987H43.1092L43.5294 12.3122L49.8325 32.0967H37.4285C37.2447 32.1034 37.0654 32.1571 36.9067 32.253C36.7479 32.349 36.6147 32.484 36.5189 32.6462C36.4114 32.8165 36.339 33.0078 36.3061 33.2082C36.2731 33.4086 36.2804 33.6139 36.3274 33.8113L41.2263 54.7004Z" fill="#3F3F41"/>
</svg>
