<svg width="70" height="70" viewBox="0 0 70 70" fill="none" xmlns="http://www.w3.org/2000/svg">
<path d="M30.4033 28.7532C32.6292 27.1545 33.9099 24.0647 33.9099 20.2781C33.9099 16.6503 32.8274 12.5357 29.9509 10.9728C25.0975 11.1573 22.2719 15.7126 22.2719 21.5437C22.26 24.0882 23.0247 26.5748 24.4623 28.6661C24.9443 29.0194 25.3361 29.4831 25.6058 30.0188C25.9691 30.3938 26.3635 30.7366 26.7848 31.0437C27.1559 31.3024 27.4596 31.6476 27.6701 32.0499C27.8807 32.4522 27.9919 32.8997 27.9944 33.3546V58.8569C28.2266 58.859 28.4578 58.8262 28.6804 58.7595C28.8236 58.3401 28.8739 57.8941 28.8278 57.4529V31.7918C28.8315 31.1954 28.9764 30.6086 29.2505 30.0801C29.5245 29.5516 29.9197 29.0967 30.4033 28.7532Z" fill="#C17638"/>
<path d="M37.7621 23.6241C37.8238 23.0506 37.8543 22.4741 37.8536 21.8973C37.8536 17.5213 36.4662 13.6681 33.732 11.931L33.8133 12.0489C35.1651 14.1651 35.8766 17.0192 35.8766 20.2883C35.8766 24.7155 34.291 28.3843 31.5365 30.3673C31.3096 30.528 31.1243 30.7412 30.9961 30.9891C30.8678 31.2369 30.8005 31.5122 30.7996 31.7918V57.4529C30.7996 58.739 30.6472 59.7177 29.9001 60.3121C29.3991 60.6648 28.7982 60.8446 28.1875 60.8245C28.4365 61.4548 28.9904 61.4599 30.139 61.4599H30.3677C32.182 61.4599 32.7766 61.4599 32.7766 59.0772V33.4058C32.7779 32.9671 32.8839 32.535 33.0855 32.1462C33.2872 31.7574 33.5787 31.4232 33.9353 31.1718C35.006 30.3834 35.8767 29.351 36.4763 28.1588C36.4731 27.7987 36.5106 27.4394 36.5881 27.0879C36.8997 25.9074 37.292 24.75 37.7621 23.6241Z" fill="#C17638"/>
<path d="M47.6468 58.0985C47.6468 53.0052 47.0573 26.6831 46.732 15.236C44.1046 19.8477 41.0248 26.9957 40.5674 29.1426C40.5674 29.199 40.5674 29.2502 40.5369 29.3066L40.6944 29.3373C41.7769 29.5474 42.9001 29.7626 43.6268 30.562C43.8606 30.8233 44.0842 31.2128 44.2367 32.3708C44.8269 32.4532 45.3792 32.712 45.8223 33.1138C47.0725 34.5024 45.7715 54.1223 45.6495 58.7647H46.0307C46.5533 58.7874 47.0766 58.7374 47.5858 58.6161C47.6384 58.449 47.6591 58.2734 47.6468 58.0985Z" fill="#C17638"/>
<path d="M50.5893 12.5152C50.5181 10.7115 49.7761 10.9011 48.7241 12.1923C49.0138 21.0877 49.7406 52.4826 49.7406 58.1139C49.7572 58.5964 49.6651 59.0765 49.4712 59.5179C49.2716 59.9544 48.9262 60.3062 48.4955 60.512C47.7283 60.8018 46.9094 60.9257 46.0916 60.8758H45.9595C46.3712 61.6751 47.2402 61.6956 48.78 61.6546C50.6909 61.6034 51.6666 61.6546 51.6666 59.9432C51.6463 53.8815 50.8383 18.4385 50.5893 12.5152Z" fill="#C17638"/>
<path d="M48.5005 60.512C48.9313 60.3062 49.2767 59.9543 49.4763 59.5179C49.6702 59.0765 49.7623 58.5964 49.7456 58.1139C49.7456 52.4775 49.024 21.0877 48.7292 12.1923C48.7292 11.5518 48.6886 11.0241 48.6733 10.6551C48.6022 8.84636 47.8195 8.39545 47.1487 8.33909C46.2136 8.2571 45.2887 9.0462 43.9673 11.0753C42.8463 12.8576 41.8281 14.7036 40.9181 16.6041C39.7238 19.0124 38.5854 21.5796 37.7621 23.6446C37.2919 24.7705 36.8997 25.9279 36.5881 27.1084C36.5106 27.4599 36.4731 27.8192 36.4763 28.1793C36.4675 28.7479 36.6267 29.3062 36.9337 29.7832C37.6808 30.9207 39.0732 31.1923 40.3031 31.428C40.9076 31.4872 41.4956 31.6611 42.0361 31.9404C42.1632 32.2734 42.4478 33.703 42.3309 39.6828C42.2546 43.7 42.0361 48.3168 41.8582 52.0214C41.6956 55.4597 41.6092 57.2787 41.6499 57.8475C41.843 60.5734 43.3879 60.8809 45.065 60.8809H46.0814C46.9046 60.9314 47.729 60.8056 48.5005 60.512ZM45.7714 58.7595H45.6495C45.0932 58.815 44.5316 58.7769 43.9876 58.6468C43.8098 58.5494 43.7488 57.9397 43.7284 57.6886C43.6929 57.2223 43.8148 54.7372 43.9368 52.1137C44.1096 48.4449 44.3536 43.4028 44.445 39.2728C44.5332 36.9689 44.4721 34.6616 44.2621 32.3657C44.1096 31.2076 43.886 30.8284 43.6522 30.5569C42.9255 29.7575 41.8023 29.5321 40.7199 29.3322L40.5623 29.3015C39.7797 29.1478 38.9411 28.9633 38.6921 28.5841C38.5534 28.2435 38.5372 27.8646 38.6463 27.5132C38.9208 26.2219 40.4505 22.3328 42.524 18.0696C44.5009 14.0011 45.8629 11.9208 46.6252 10.9575C46.6608 11.8747 46.7066 13.3555 46.7574 15.2309C47.0826 26.678 47.6721 53.0001 47.6721 58.0934C47.6839 58.2666 47.6632 58.4404 47.6112 58.6058C47.102 58.7271 46.5787 58.7771 46.056 58.7544L45.7714 58.7595Z" fill="#3F3F41"/>
<path d="M30.7996 57.4529V31.7918C30.8005 31.5122 30.8678 31.2369 30.9961 30.9891C31.1243 30.7412 31.3096 30.528 31.5365 30.3673C34.291 28.3843 35.8766 24.7309 35.8766 20.2883C35.8766 17.0192 35.1651 14.1395 33.8133 12.0489L33.732 11.931C33.0576 10.8232 32.1099 9.91041 30.9815 9.2818C29.853 8.65318 28.5822 8.33015 27.293 8.3442C25.9843 8.32547 24.6911 8.63162 23.5275 9.23568C22.3638 9.83974 21.3654 10.7232 20.6202 11.808C19.1464 13.8577 18.3333 16.7476 18.3333 19.9143C18.3333 24.116 20.2238 28.0564 23.268 30.2136C23.5102 30.381 23.7088 30.6049 23.8468 30.8663C23.9848 31.1277 24.0582 31.4188 24.0608 31.7149V57.3351C24.0608 58.7954 24.1574 59.6357 24.7367 60.2148C25.3161 60.7938 26.1394 60.8092 27.1812 60.8092H27.4099C27.6843 60.8092 27.9181 60.8092 28.1875 60.8092C28.7982 60.8292 29.3991 60.6495 29.9001 60.2968C30.6472 59.7177 30.7996 58.7595 30.7996 57.4529ZM28.8329 57.4529C28.8773 57.8945 28.8253 58.3404 28.6804 58.7595C28.4554 58.8215 28.2224 58.8492 27.9893 58.8415H27.1761C26.8231 58.8547 26.4696 58.8393 26.1191 58.7954C26.013 58.313 25.9753 57.8179 26.0072 57.3248V31.7047C26.0066 31.1132 25.8673 30.5303 25.6007 30.0035C25.331 29.4677 24.9391 29.0041 24.4572 28.6507C24.4348 28.6288 24.411 28.6082 24.386 28.5892C23.1165 27.6636 22.0992 26.4299 21.4283 25.0024C20.6674 23.4181 20.2746 21.6797 20.2797 19.9194C20.2797 17.1575 20.9556 14.6929 22.1906 12.9712C22.7582 12.1443 23.5184 11.4703 24.4044 11.0085C25.2904 10.5466 26.2753 10.3109 27.2727 10.3221C28.1999 10.3094 29.1155 10.5313 29.9357 10.9677C32.8121 12.5049 33.8946 16.6451 33.8946 20.273C33.8946 24.0596 32.6139 27.1494 30.388 28.7481C29.9054 29.0921 29.5111 29.5472 29.238 30.0757C28.9649 30.6042 28.8208 31.1907 28.8176 31.7866L28.8329 57.4529Z" fill="#3F3F41"/>
</svg>
