<svg width="189" height="210" viewBox="0 0 189 210" fill="none" xmlns="http://www.w3.org/2000/svg">
<path d="M42.1568 42.8721C42.0845 42.2725 41.8674 41.6995 41.5243 41.2023C41.1812 40.7051 40.7222 40.2987 40.187 40.018C36.5126 38.0628 32.4142 37.0381 28.2512 37.0335C24.1079 37.0465 20.0282 38.052 16.3544 39.9658C12.6047 41.92 9.39695 44.7703 7.01681 48.2629C4.63666 51.7555 3.158 55.7819 2.71251 59.9836C2.26702 64.1853 2.86854 68.4319 4.46348 72.3451C6.05842 76.2584 8.59727 79.7168 11.854 82.4125C12.3406 82.8196 12.9191 83.1023 13.5395 83.2362C14.1599 83.3702 14.8037 83.3514 15.4152 83.1814C16.0163 83.0191 16.5684 82.7122 17.0233 82.2873C17.4781 81.8624 17.8218 81.3326 18.0241 80.7443C22.7432 67.5751 30.5902 55.7466 40.8915 46.2736C41.3619 45.851 41.7227 45.3207 41.9431 44.7283C42.1634 44.1359 42.2368 43.499 42.1568 42.8721Z" fill="#FFA44B"/>
<path d="M41.4132 37.7112C35.2312 34.467 28.0661 33.6236 21.2986 35.3436C14.5312 37.0636 8.64049 41.2253 4.76179 47.0265C0.883094 52.8278 -0.70907 59.858 0.292148 66.7624C1.29337 73.6667 4.81709 79.9565 10.1842 84.4195C11.3655 85.3965 12.851 85.9312 14.3846 85.9312C15.7266 85.9297 17.0355 85.5146 18.1327 84.7427C19.2299 83.9707 20.0621 82.8793 20.5157 81.6175C25.0877 68.8444 32.6981 57.3726 42.6917 48.1893C43.4651 47.4816 44.0562 46.5979 44.415 45.6133C44.7738 44.6286 44.8897 43.5721 44.7527 42.5332C44.6274 41.5197 44.2581 40.5517 43.6765 39.7119C43.095 38.8722 42.3184 38.1857 41.4132 37.7112ZM18.0502 80.7183C17.8478 81.3066 17.5042 81.8364 17.0494 82.2613C16.5946 82.6861 16.0424 82.9931 15.4412 83.1553C14.8297 83.3253 14.186 83.3441 13.5656 83.2102C12.9452 83.0762 12.3667 82.7935 11.88 82.3864C8.62337 79.6908 6.0845 76.2323 4.48956 72.3191C2.89462 68.4059 2.29312 64.1593 2.73861 59.9576C3.1841 55.7559 4.66276 51.7294 7.04291 48.2369C9.42305 44.7443 12.6308 41.894 16.3805 39.9398C20.0543 38.026 24.134 37.0204 28.2772 37.0075C32.4403 37.012 36.5387 38.0368 40.2131 39.9919C40.7483 40.2726 41.2072 40.6791 41.5504 41.1762C41.8935 41.6734 42.1106 42.2465 42.1829 42.846C42.2581 43.4762 42.1787 44.1152 41.9514 44.7078C41.7241 45.3004 41.3558 45.8288 40.8784 46.2475C30.5878 55.7322 22.7543 67.5697 18.0502 80.7443V80.7183Z" fill="black"/>
<path d="M122.056 2.64096C119.753 2.6425 117.461 2.96266 115.246 3.59232C111.537 4.6256 108.109 6.48346 105.22 9.02691C102.331 11.5703 100.055 14.7335 98.5621 18.2799C98.2988 18.875 98.1883 19.5264 98.2407 20.175C98.2931 20.8236 98.5067 21.4489 98.8621 21.9941C99.1957 22.5201 99.653 22.9565 100.194 23.2654C100.735 23.5743 101.344 23.7464 101.967 23.7665C115.942 24.2757 129.585 28.1617 141.727 35.0917C142.282 35.4132 142.908 35.5932 143.55 35.616C144.191 35.6387 144.829 35.5034 145.406 35.222C145.977 34.9498 146.474 34.5431 146.853 34.0369C147.232 33.5307 147.483 32.9401 147.584 32.3158C148.172 28.6382 147.95 24.8768 146.935 21.2934C145.92 17.7099 144.135 14.3905 141.705 11.5661C139.276 8.74175 136.259 6.4802 132.866 4.93884C129.472 3.39748 125.783 2.61334 122.056 2.64096Z" fill="#FFA44B"/>
<path d="M147.623 15.8558C144.691 9.93001 139.786 5.20806 133.75 2.49971C127.714 -0.208648 120.923 -0.734652 114.542 1.0119C110.45 2.15667 106.671 4.2107 103.486 7.02039C100.301 9.83009 97.7924 13.3228 96.1488 17.2373C95.7316 18.2255 95.5599 19.3 95.6485 20.3689C95.7371 21.4377 96.0833 22.4693 96.6576 23.3756C97.2171 24.26 97.9856 24.9935 98.8954 25.5117C99.8053 26.0298 100.829 26.3166 101.875 26.347C115.43 26.8355 128.662 30.6057 140.436 37.3333C141.35 37.8538 142.377 38.1455 143.429 38.1835C144.481 38.2214 145.526 38.0045 146.476 37.5512C147.426 37.0979 148.251 36.4218 148.883 35.5804C149.514 34.7391 149.932 33.7577 150.102 32.7198C151.037 26.9777 150.171 21.087 147.623 15.8558ZM147.532 32.3028C147.438 32.9243 147.196 33.5141 146.826 34.0223C146.456 34.5305 145.969 34.942 145.406 35.222C144.834 35.4925 144.206 35.6207 143.575 35.5957C142.943 35.5708 142.327 35.3934 141.779 35.0787C129.637 28.1487 115.994 24.2626 102.019 23.7535C101.396 23.7333 100.788 23.5613 100.246 23.2524C99.7053 22.9435 99.2479 22.507 98.9143 21.9811C98.5588 21.4358 98.3453 20.8106 98.2929 20.162C98.2405 19.5134 98.351 18.862 98.6143 18.2669C100.102 14.7132 102.376 11.5423 105.266 8.99184C108.155 6.44138 111.585 4.57758 115.298 3.5402C117.513 2.91054 119.805 2.59038 122.108 2.58883C125.836 2.56757 129.524 3.35832 132.916 4.90606C136.307 6.4538 139.32 8.72134 141.745 11.5508C144.17 14.3803 145.948 17.7038 146.957 21.2899C147.965 24.8761 148.179 28.6387 147.584 32.3158L147.532 32.3028Z" fill="black"/>
<path d="M182.857 150.794L166.551 143.261L167.125 142.075C173.589 128.563 175.882 113.435 173.712 98.6171C171.542 83.7991 165.006 69.9617 154.938 58.8667C144.87 47.7718 131.725 39.9215 117.176 36.3154C102.627 32.7092 87.3331 33.5105 73.2416 38.6171C59.1501 43.7237 46.8986 52.9046 38.0472 64.9907C29.1958 77.0769 24.145 91.5213 23.538 106.485C22.9309 121.448 26.7951 136.254 34.6384 149.016C42.4817 161.778 53.9493 171.919 67.5809 178.149L68.7679 178.696L60.9411 195.547C60.2647 197.027 60.2004 198.715 60.7622 200.242C61.324 201.77 62.4664 203.014 63.9414 203.705L70.6986 206.82C72.1805 207.496 73.8694 207.56 75.3985 206.999C76.9275 206.438 78.173 205.296 78.8645 203.823L87.9958 184.209L88.9611 184.339C101.149 185.991 113.556 184.649 125.108 180.429C136.452 176.293 146.619 169.464 154.733 160.529L155.385 159.825L174.613 168.713C176.095 169.389 177.783 169.453 179.313 168.892C180.842 168.331 182.087 167.189 182.779 165.716L185.896 158.965C186.573 157.484 186.637 155.797 186.075 154.269C185.513 152.742 184.371 151.497 182.896 150.807L182.857 150.794ZM154.798 132.366L154.498 133.096C149.245 145.572 139.92 155.905 128.041 162.414C116.162 168.923 102.428 171.224 89.0739 168.943C75.7196 166.662 63.5309 159.933 54.4912 149.851C45.4514 139.769 40.0927 126.928 39.2869 113.417V111.892C38.9967 102.181 41.0667 92.5455 45.3196 83.8094C49.5726 75.0732 55.8817 67.4971 63.7066 61.7299L65.6502 60.3224C69.6679 57.6476 73.99 55.4601 78.5254 53.8062C88.5412 50.1428 99.3523 49.2078 109.849 51.0973C120.346 52.9867 130.151 57.6326 138.257 64.558L139.848 66.0046C148.802 74.2383 155.033 85.0019 157.71 96.8618C160.388 108.722 159.386 121.115 154.837 132.392L154.798 132.366Z" fill="#FF6C37"/>
<path d="M188.453 153.361C188.06 152.281 187.456 151.289 186.677 150.444C185.898 149.598 184.959 148.915 183.914 148.435L169.995 141.997C176.393 128.011 178.514 112.449 176.089 97.2638C173.665 82.0786 166.804 67.9474 156.368 56.6444C145.933 45.3415 132.387 37.3706 117.433 33.7326C102.478 30.0946 86.7808 30.9516 72.312 36.1961C57.8433 41.4406 45.2478 50.8387 36.1072 63.2105C26.9665 75.5823 21.688 90.3763 20.9345 105.735C20.181 121.094 23.9861 136.332 31.8719 149.538C39.7577 162.744 51.3729 173.327 65.2589 179.96L58.554 194.452C57.5881 196.56 57.4943 198.964 58.2931 201.141C59.0919 203.318 60.7186 205.092 62.8196 206.077L69.5767 209.192C70.6192 209.676 71.7477 209.949 72.8965 209.993C74.0453 210.038 75.1916 209.854 76.2687 209.453C77.3509 209.062 78.3444 208.459 79.191 207.681C80.0376 206.902 80.7204 205.963 81.1996 204.917L89.483 187.05C101.793 188.556 114.285 187.117 125.93 182.853C137.363 178.691 147.645 171.88 155.933 162.979L173.439 171.059C175.547 172.024 177.951 172.117 180.128 171.319C182.305 170.52 184.078 168.895 185.061 166.797L188.192 160.047C188.676 159.005 188.949 157.878 188.993 156.73C189.038 155.582 188.855 154.437 188.453 153.361ZM185.844 158.952L182.726 165.703C182.035 167.176 180.789 168.318 179.26 168.879C177.731 169.44 176.042 169.376 174.561 168.7L155.333 159.812L154.68 160.516C146.566 169.451 136.4 176.28 125.056 180.416C113.504 184.636 101.097 185.978 88.909 184.326L87.9437 184.196L78.8124 203.809C78.1209 205.283 76.8753 206.424 75.3463 206.986C73.8172 207.547 72.1283 207.483 70.6464 206.807L63.8893 203.692C62.4143 203.001 61.2718 201.757 60.7101 200.229C60.1483 198.702 60.2125 197.014 60.889 195.534L68.7158 178.683L67.5287 178.136C53.8997 171.898 42.437 161.749 34.6001 148.981C26.7632 136.214 22.9065 121.405 23.5211 106.441C24.1357 91.4761 29.1938 77.0329 38.0514 64.9497C46.909 52.8665 59.1654 43.6901 73.2602 38.5886C87.3549 33.4872 102.65 32.6916 117.199 36.3031C131.748 39.9146 144.892 47.7698 154.958 58.8687C165.023 69.9676 171.555 83.8079 173.722 98.6277C175.889 113.448 173.592 128.576 167.125 142.088L166.551 143.274L182.857 150.807C184.332 151.497 185.474 152.742 186.036 154.269C186.598 155.797 186.534 157.484 185.857 158.965L185.844 158.952Z" fill="black"/>
<path d="M134.787 106.744C130.769 95.8358 115.324 97.2433 115.22 97.2563H115.064C114.255 97.2563 94.9878 96.8263 91.9875 87.3777C90.2134 81.7738 92.8615 76.6651 94.9878 72.5599C95.4313 71.7258 95.8488 70.9178 96.214 70.1359C97.9098 66.5128 103.141 65.5484 107.276 66.2261C109.449 66.6172 111.597 67.1394 113.707 67.79C119.029 69.3018 124.521 70.8657 128.969 68.3374C131.317 67.0341 133.313 65.9524 134.944 65.1965C125.677 57.8355 114.359 53.5174 102.54 52.8338C90.7209 52.1502 78.9795 55.1346 68.9245 61.3781C70.095 62.2 70.9797 63.3663 71.4552 64.7143C72.29 67.1905 71.6769 70.214 69.642 73.7067C68.5723 75.5313 68.1418 76.9649 68.3375 77.838C68.5332 78.7112 69.368 79.1412 70.6595 79.8059C71.9509 80.4706 73.5423 81.3307 73.9467 83.0901C74.2859 84.6149 73.6467 86.4133 71.9248 88.7722C66.8765 95.6794 49.4879 112.726 41.922 114.55C42.7263 124.694 46.2178 134.441 52.0382 142.792C57.8587 151.142 65.7984 157.795 75.0425 162.067C78.8886 163.845 82.9171 165.199 87.0566 166.107C85.7522 164.543 84.7868 161.832 85.1912 157.153C86.0261 147.431 83.5998 146.454 81.4605 145.594L81.0691 145.437C80.0794 144.984 79.1468 144.415 78.2906 143.743C76.0365 142.086 73.6143 140.671 71.0638 139.521C59.7541 134.308 58.867 129.095 60.1193 125.55C62.3239 119.398 72.7727 115.332 76.5687 116.31C79.3994 117.04 81.7866 115.775 84.9043 114.185C86.8806 113.084 88.9549 112.168 91.1005 111.449C95.1443 110.145 96.3184 111.97 97.4924 113.834C99.087 116.514 101.591 118.535 104.55 119.529C110.602 121.94 113.224 128.443 112.116 138.348C112.046 139.245 111.764 140.112 111.292 140.878C110.82 141.644 110.172 142.287 109.402 142.753C107.915 143.86 106.219 145.111 106.037 152.136C105.88 155.222 104.936 158.217 103.295 160.835C101.653 163.454 99.3683 165.61 96.6575 167.097L96.201 167.319C107.878 167.897 119.454 164.907 129.387 158.746C139.319 152.586 147.137 143.547 151.797 132.835C146.606 126.605 137.996 115.489 134.787 106.744Z" fill="#AFE2E3"/>
<path d="M155.463 89.3587C152.175 80.4353 146.809 72.4213 139.809 65.9785L138.218 64.5319C130.112 57.6065 120.307 52.9606 109.81 51.0712C99.3132 49.1817 88.5021 50.1167 78.4863 53.7801C73.9509 55.434 69.6288 57.6215 65.6111 60.2963L63.6675 61.7039C55.8426 67.471 49.5335 75.0471 45.2805 83.7833C41.0276 92.5195 38.9576 102.155 39.2478 111.866V113.39C40.008 126.937 45.3454 139.826 54.3876 149.949C63.4297 160.073 75.6418 166.832 89.0276 169.123C102.413 171.414 116.181 169.101 128.081 162.561C139.98 156.022 149.307 145.643 154.537 133.122L154.837 132.392C160.4 118.625 160.623 103.281 155.463 89.3587ZM66.4851 62.9419C67.6102 63.4559 68.4867 64.3925 68.9245 65.5484C69.5115 67.2687 68.9245 69.5624 67.333 72.3904C65.8459 74.9318 65.3633 76.8866 65.8329 78.5417C66.1528 79.3506 66.6383 80.0837 67.2583 80.6942C67.8783 81.3046 68.6191 81.7789 69.4333 82.0866C70.3725 82.5948 71.2595 83.064 71.403 83.6635C71.4943 84.0545 71.403 85.0449 69.8246 87.2214C63.6153 95.7185 47.5051 110.237 41.8567 111.918C41.5564 102.351 43.6517 92.8613 47.9525 84.3087C52.2533 75.7561 58.6235 68.4118 66.4851 62.9419ZM89.9004 165.142C88.2437 164.035 87.5132 161.233 87.8393 157.323C88.7655 146.571 85.8305 144.473 82.478 143.13L82.1257 142.987C81.3205 142.596 80.5595 142.12 79.856 141.567C77.4706 139.815 74.9087 138.317 72.2118 137.097C66.9939 134.672 61.0325 130.841 62.6239 126.384C64.3719 121.523 73.5423 118.16 75.9686 118.786C79.7646 119.763 82.8693 118.147 86.1565 116.44C87.9961 115.418 89.9262 114.567 91.9223 113.899C94.0747 113.221 94.2704 113.534 95.3531 115.202C97.2313 118.346 100.167 120.72 103.636 121.901C109.754 124.338 110.25 132.001 109.572 138.009C109.542 138.55 109.373 139.075 109.081 139.532C108.788 139.988 108.382 140.362 107.902 140.615C105.606 142.336 103.689 144.369 103.48 152.032C103.348 154.653 102.547 157.198 101.152 159.422C99.7564 161.647 97.8139 163.477 95.5096 164.738C93.292 165.898 91.244 166.042 89.9004 165.142ZM118.964 163.839C111.707 166.521 103.981 167.705 96.2532 167.319L96.7097 167.097C99.4205 165.61 101.705 163.454 103.347 160.835C104.989 158.217 105.932 155.222 106.089 152.136C106.271 145.111 107.967 143.86 109.454 142.753C110.225 142.287 110.873 141.644 111.345 140.878C111.816 140.112 112.099 139.245 112.168 138.348C113.276 128.443 110.655 121.94 104.602 119.529C101.643 118.535 99.1392 116.514 97.5446 113.834C96.3314 111.97 95.1965 110.211 91.1527 111.449C89.0071 112.168 86.9328 113.084 84.9565 114.185C81.8779 115.775 79.4516 117.04 76.6209 116.31C72.8249 115.332 62.3761 119.398 60.1715 125.55C58.867 129.042 59.8062 134.295 71.116 139.521C73.6664 140.671 76.0887 142.086 78.3428 143.743C79.199 144.415 80.1316 144.984 81.1213 145.437L81.5126 145.594C83.652 146.454 86.0783 147.431 85.2434 157.153C84.8391 161.832 85.8435 164.543 87.1088 166.107C82.9693 165.199 78.9408 163.845 75.0947 162.067C65.8506 157.795 57.9109 151.142 52.0904 142.792C46.27 134.441 42.7784 124.694 41.9741 114.55C49.4879 112.726 66.8765 95.6794 71.977 88.7722C73.6989 86.4133 74.3381 84.6149 73.9989 83.0901C73.5945 81.3307 72.0683 80.4836 70.7116 79.8059C69.355 79.1282 68.6245 78.633 68.3897 77.838C68.1549 77.043 68.5723 75.5313 69.6941 73.7067C71.7291 70.214 72.3031 67.1905 71.5074 64.7143C71.0319 63.3663 70.1472 62.2 68.9767 61.3781C79.0207 55.1581 90.7415 52.187 102.539 52.8704C114.336 53.5538 125.634 57.8585 134.892 65.1965C133.261 65.9524 131.265 67.0081 128.917 68.3374C124.469 70.8657 118.977 69.3018 113.655 67.79C111.545 67.1394 109.397 66.6172 107.224 66.2261C103.089 65.5745 97.8576 66.5389 96.1618 70.1358C95.7966 70.9178 95.3792 71.7258 94.9356 72.5599C92.8093 76.6651 90.1613 81.7738 91.9354 87.3777C94.9356 96.8263 114.203 97.2433 115.011 97.2563H115.168C115.325 97.2563 130.822 95.8358 134.735 106.744C137.944 115.489 146.554 126.605 151.693 132.809C148.607 139.911 144.117 146.318 138.494 151.646C132.87 156.973 126.227 161.112 118.964 163.813V163.839ZM152.88 130.098C148.328 124.546 140.175 113.938 137.227 105.871C132.622 93.3727 116.433 94.5456 114.972 94.6759C109.859 94.5847 96.4227 92.9556 94.4139 86.6219C92.9659 82.0475 95.2357 77.6555 97.2445 73.7849C97.7011 72.9117 98.1316 72.0777 98.549 71.2697C99.6056 68.989 103.623 68.2982 106.859 68.8065C108.926 69.1772 110.969 69.6734 112.976 70.2922C118.534 71.8822 124.821 73.6807 130.235 70.605C132.464 69.298 134.763 68.1146 137.122 67.0602C145.844 74.7271 152.027 84.8618 154.85 96.1201C157.674 107.378 157.005 119.228 152.932 130.098H152.88Z" fill="black"/>
<path d="M69.8245 87.2084C63.6022 95.7186 47.4528 110.237 41.8306 111.97C41.5295 102.4 43.6257 92.9067 47.9289 84.3516C52.2321 75.7965 58.6061 68.4507 66.472 62.9811C67.5994 63.4958 68.4799 64.4316 68.9244 65.5876C69.5114 67.3079 68.9244 69.6016 67.333 72.4296C65.8459 74.9709 65.3632 76.9258 65.8328 78.5809C66.1527 79.3897 66.6382 80.1229 67.2582 80.7333C67.8782 81.3438 68.619 81.818 69.4332 82.1257C70.3724 82.634 71.2594 83.1032 71.4029 83.7027C71.4942 84.0415 71.4029 85.032 69.8245 87.2084ZM109.572 138.035C110.25 132.027 109.754 124.364 103.636 121.927C100.167 120.746 97.2312 118.372 95.353 115.228C94.2703 113.56 94.0485 113.247 91.9222 113.925C89.9262 114.593 87.996 115.444 86.1564 116.466C82.8692 118.173 79.7645 119.79 75.9685 118.812C75.7336 118.756 75.4926 118.73 75.2511 118.734C72.1073 118.734 64.2283 121.94 62.6238 126.41C61.0193 130.88 66.9547 134.699 72.2117 137.123C74.9086 138.343 77.4706 139.841 79.8559 141.593C80.5595 142.146 81.3204 142.622 82.1256 143.013L82.4779 143.157C85.8304 144.46 88.7654 146.597 87.8392 157.349C87.5131 161.259 88.2436 164.035 89.9003 165.168C91.2048 166.068 93.2919 165.924 95.5095 164.777C97.8139 163.516 99.7563 161.686 101.152 159.461C102.547 157.237 103.348 154.693 103.48 152.071C103.689 144.408 105.606 142.375 107.902 140.654C108.384 140.4 108.791 140.025 109.084 139.565C109.376 139.106 109.545 138.579 109.572 138.035ZM152.906 130.085C156.971 119.211 157.638 107.361 154.817 96.1006C151.996 84.8403 145.822 74.7003 137.109 67.0212C134.747 68.0838 132.444 69.2715 130.208 70.579C124.795 73.6547 118.468 71.8823 112.95 70.2663C110.943 69.6474 108.9 69.1512 106.832 68.7805C103.597 68.2723 99.5795 68.963 98.5229 71.2437C98.1446 72.0517 97.7141 72.8858 97.2184 73.7589C95.2095 77.6687 92.9397 82.0215 94.3877 86.5959C96.3966 92.9297 109.833 94.5587 114.946 94.6499C115.22 94.6499 116.029 94.5717 117.19 94.5717C122.134 94.5717 133.47 95.7186 137.2 105.845C140.188 113.912 148.354 124.533 152.906 130.085Z" fill="#70D44B"/>
</svg>
