<svg width="172" height="54" viewBox="0 0 172 54" fill="none" xmlns="http://www.w3.org/2000/svg">
<path d="M60.8701 21.1306H55.2578V17.6364H70.6642V21.1306H65.0519V36.8681H60.8701V21.1306Z" fill="#2E2E2E"/>
<path d="M74.0881 21.6258C73.4461 21.6258 72.9051 21.4149 72.4649 20.993C72.0247 20.5711 71.8046 20.0392 71.8046 19.3973C71.8046 18.7736 72.0247 18.2509 72.4649 17.829C72.9051 17.3888 73.4461 17.1687 74.0881 17.1687C74.73 17.1687 75.2711 17.3888 75.7113 17.829C76.1514 18.2509 76.3715 18.7736 76.3715 19.3973C76.3715 20.0392 76.1514 20.5711 75.7113 20.993C75.2711 21.4149 74.73 21.6258 74.0881 21.6258ZM71.9972 23.6618H76.179V36.8681H71.9972V23.6618Z" fill="#2E2E2E"/>
<path d="M79.2198 23.6618H83.0989V25.2575C83.6675 24.6156 84.3278 24.1203 85.0798 23.7718C85.8317 23.4233 86.6112 23.2491 87.4182 23.2491C88.427 23.2491 89.234 23.4142 89.8392 23.7443C90.4445 24.0561 90.9213 24.5239 91.2698 25.1475C91.8384 24.5422 92.5262 24.0745 93.3332 23.7443C94.1585 23.4142 94.9747 23.2491 95.7817 23.2491C97.4691 23.2491 98.6704 23.6801 99.3857 24.5422C100.119 25.4043 100.486 26.6515 100.486 28.284V36.8681H96.5245V28.8618C96.5245 28.018 96.3594 27.4127 96.0293 27.0459C95.6992 26.6791 95.1673 26.4956 94.4336 26.4956C93.4065 26.4956 92.5812 26.8992 91.9576 27.7062C91.9943 28.2932 92.0126 28.7701 92.0126 29.1369V36.8681H88.0235V28.7242C88.0235 27.9172 87.8767 27.3485 87.5833 27.0184C87.3082 26.6699 86.8221 26.4956 86.1252 26.4956C85.0431 26.4956 84.0802 27.1101 83.2365 28.339V36.8681H79.2198V23.6618Z" fill="#2E2E2E"/>
<path d="M110.832 37.2808C108.301 37.2808 106.311 36.6755 104.862 35.4649C103.413 34.236 102.688 32.521 102.688 30.32C102.688 28.1373 103.33 26.4131 104.614 25.1475C105.916 23.8819 107.769 23.2491 110.171 23.2491C111.749 23.2491 113.088 23.5426 114.188 24.1295C115.289 24.7165 116.123 25.5327 116.692 26.5782C117.26 27.6053 117.545 28.7701 117.545 30.0723V31.7506H106.65C106.943 33.4381 108.521 34.2819 111.382 34.2819C112.226 34.2819 113.097 34.2085 113.996 34.0617C114.894 33.915 115.674 33.7133 116.334 33.4565V36.3729C115.692 36.648 114.867 36.8681 113.858 37.0332C112.849 37.1982 111.84 37.2808 110.832 37.2808ZM113.61 29.0544C113.555 28.1739 113.225 27.4953 112.62 27.0184C112.015 26.5232 111.18 26.2755 110.116 26.2755C109.071 26.2755 108.246 26.5232 107.64 27.0184C107.035 27.5136 106.705 28.1923 106.65 29.0544H113.61Z" fill="#2E2E2E"/>
<path d="M124.767 37.2808C123.153 37.2808 121.832 36.8773 120.805 36.0702C119.796 35.2448 119.292 34.1259 119.292 32.7136C119.292 31.2462 119.778 30.109 120.75 29.302C121.722 28.4766 123.098 28.0639 124.877 28.0639C125.665 28.0639 126.417 28.1464 127.133 28.3115C127.848 28.4766 128.481 28.7059 129.031 28.9993V28.6692C129.031 27.8438 128.737 27.2385 128.151 26.8533C127.564 26.4681 126.665 26.2755 125.454 26.2755C123.84 26.2755 122.355 26.5782 120.998 27.1835V24.157C121.585 23.9002 122.346 23.6893 123.281 23.5242C124.216 23.3408 125.152 23.2491 126.087 23.2491C128.472 23.2491 130.251 23.7443 131.424 24.7348C132.598 25.7069 133.185 27.0734 133.185 28.8343V36.8681H129.279V35.6575C128.16 36.7397 126.656 37.2808 124.767 37.2808ZM125.895 34.5295C126.573 34.5295 127.188 34.4011 127.738 34.1443C128.288 33.8875 128.719 33.5298 129.031 33.0713V31.7506C128.096 31.127 127.068 30.8152 125.95 30.8152C125.179 30.8152 124.583 30.9803 124.161 31.3104C123.758 31.6223 123.556 32.09 123.556 32.7136C123.556 33.3006 123.758 33.7499 124.161 34.0617C124.565 34.3736 125.143 34.5295 125.895 34.5295Z" fill="#2E2E2E"/>
<path d="M135.935 23.6618H139.952V25.5602C140.484 24.9182 141.227 24.4322 142.18 24.102C143.134 23.7535 144.216 23.5792 145.427 23.5792V26.7433C144.161 26.7433 143.042 26.9358 142.07 27.321C141.117 27.7062 140.456 28.2932 140.089 29.0819V36.8681H135.935V23.6618Z" fill="#2E2E2E"/>
<path d="M152.722 37.2808C151.182 37.2808 150.008 36.8589 149.201 36.0152C148.412 35.1531 148.018 33.9609 148.018 32.4385V26.6607H146.092V23.6618H148.018V19.6999H152.172V23.6618H155.281V26.6607H152.172V31.8882C152.172 32.6586 152.319 33.218 152.612 33.5665C152.906 33.8967 153.428 34.0617 154.18 34.0617C154.785 34.0617 155.363 33.915 155.913 33.6215V36.7305C155.07 37.0974 154.006 37.2808 152.722 37.2808Z" fill="#2E2E2E"/>
<path d="M157.832 16.5359H161.986V25.175C162.609 24.533 163.315 24.0561 164.104 23.7443C164.893 23.4142 165.736 23.2491 166.635 23.2491C168.433 23.2491 169.771 23.7352 170.652 24.7073C171.551 25.6611 172 26.9542 172 28.5866V36.8681H167.846V29.0544C167.846 27.3485 167.057 26.4956 165.48 26.4956C164.783 26.4956 164.132 26.6699 163.526 27.0184C162.921 27.3485 162.408 27.8438 161.986 28.5041V36.8681H157.832V16.5359Z" fill="#2E2E2E"/>
<path d="M10.8787 11.0242C10.8601 10.8701 10.8041 10.7227 10.7155 10.5949C10.627 10.467 10.5085 10.3625 10.3704 10.2903C9.42223 9.78758 8.36463 9.52408 7.29033 9.52291C6.22115 9.52624 5.16837 9.78481 4.22032 10.2769C3.2527 10.7794 2.42492 11.5124 1.81072 12.4105C1.19651 13.3085 0.814935 14.3439 0.699975 15.4244C0.585015 16.5048 0.740239 17.5968 1.15182 18.603C1.5634 19.6093 2.21856 20.4986 3.05896 21.1918C3.18455 21.2965 3.33383 21.3692 3.49393 21.4036C3.65403 21.438 3.82015 21.4332 3.97795 21.3895C4.13307 21.3478 4.27555 21.2688 4.39292 21.1596C4.5103 21.0503 4.59898 20.9141 4.6512 20.7628C5.86899 17.3765 7.89392 14.3348 10.5522 11.8989C10.6736 11.7902 10.7667 11.6539 10.8236 11.5016C10.8805 11.3492 10.8994 11.1855 10.8787 11.0242Z" fill="#FFA44B"/>
<path d="M10.6869 9.69718C9.09157 8.86295 7.24256 8.64608 5.4962 9.08836C3.74983 9.53065 2.22972 10.6008 1.2288 12.0925C0.227886 13.5843 -0.182978 15.3921 0.0753901 17.1675C0.333759 18.9429 1.24307 20.5602 2.62808 21.7079C2.93293 21.9591 3.31627 22.0966 3.71201 22.0966C4.05832 22.0962 4.39608 21.9895 4.67922 21.791C4.96236 21.5925 5.1771 21.3118 5.29415 20.9874C6.474 17.7029 8.43787 14.753 11.0168 12.3915C11.2163 12.2095 11.3689 11.9823 11.4615 11.7291C11.5541 11.4759 11.584 11.2043 11.5486 10.9371C11.5163 10.6765 11.421 10.4276 11.2709 10.2116C11.1208 9.9957 10.9204 9.81918 10.6869 9.69718ZM4.65793 20.7561C4.60571 20.9074 4.51704 21.0436 4.39966 21.1529C4.28229 21.2621 4.1398 21.3411 3.98468 21.3828C3.82688 21.4265 3.66076 21.4313 3.50066 21.3969C3.34056 21.3625 3.19128 21.2898 3.0657 21.1851C2.2253 20.4919 1.57013 19.6026 1.15855 18.5963C0.746968 17.5901 0.591749 16.4981 0.706709 15.4177C0.821669 14.3372 1.20324 13.3019 1.81745 12.4038C2.43166 11.5057 3.25943 10.7727 4.22705 10.2702C5.1751 9.77811 6.22788 9.51954 7.29706 9.51621C8.37136 9.51737 9.42896 9.78088 10.3772 10.2836C10.5153 10.3558 10.6337 10.4603 10.7222 10.5882C10.8108 10.716 10.8668 10.8634 10.8855 11.0175C10.9049 11.1796 10.8844 11.3439 10.8257 11.4963C10.7671 11.6487 10.672 11.7846 10.5488 11.8922C7.89332 14.3311 5.87185 17.3751 4.65793 20.7628V20.7561Z" fill="black"/>
<path d="M31.4969 0.679104C30.9027 0.679501 30.3113 0.761827 29.7398 0.92374C28.7826 1.18944 27.8981 1.66718 27.1525 2.3212C26.407 2.97523 25.8196 3.78863 25.4343 4.70054C25.3664 4.85358 25.3379 5.02108 25.3514 5.18786C25.3649 5.35464 25.4201 5.51542 25.5118 5.65563C25.5979 5.79087 25.7159 5.9031 25.8555 5.98254C25.9952 6.06197 26.1522 6.10622 26.3129 6.1114C29.9192 6.24232 33.4398 7.24158 36.5732 9.02358C36.7166 9.10625 36.8781 9.15254 37.0437 9.15839C37.2092 9.16423 37.3737 9.12945 37.5225 9.0571C37.6699 8.98708 37.7981 8.8825 37.896 8.75234C37.9939 8.62218 38.0587 8.47032 38.0847 8.30978C38.2363 7.3641 38.1791 6.39689 37.9171 5.47543C37.6552 4.55398 37.1946 3.70042 36.5676 2.97415C35.9406 2.24788 35.1622 1.66634 34.2865 1.26999C33.4108 0.873637 32.4589 0.672 31.4969 0.679104Z" fill="#FFA44B"/>
<path d="M38.0948 4.07722C37.3381 2.55343 36.0724 1.33921 34.5148 0.642781C32.9572 -0.0536522 31.2048 -0.18891 29.558 0.260203C28.5021 0.554573 27.5268 1.08275 26.7049 1.80524C25.883 2.52774 25.2357 3.42585 24.8116 4.43244C24.7039 4.68656 24.6596 4.96285 24.6825 5.23771C24.7054 5.51256 24.7947 5.77783 24.9429 6.01086C25.0873 6.23829 25.2856 6.42691 25.5204 6.56014C25.7552 6.69338 26.0192 6.76713 26.2894 6.77493C29.7871 6.90056 33.2018 7.87003 36.24 9.59999C36.476 9.73384 36.741 9.80885 37.0124 9.81861C37.2839 9.82837 37.5536 9.77258 37.7987 9.65602C38.0438 9.53947 38.2569 9.3656 38.4198 9.14926C38.5827 8.93292 38.6907 8.68054 38.7344 8.41367C38.9758 6.93711 38.7524 5.42236 38.0948 4.07722ZM38.0712 8.30643C38.0471 8.46624 37.9846 8.61791 37.8891 8.74859C37.7936 8.87926 37.6678 8.98509 37.5225 9.0571C37.3751 9.12664 37.213 9.15961 37.0501 9.15319C36.8871 9.14677 36.7281 9.10115 36.5867 9.02023C33.4533 7.23823 29.9327 6.23896 26.3264 6.10804C26.1657 6.10286 26.0086 6.05862 25.869 5.97919C25.7294 5.89975 25.6113 5.78752 25.5252 5.65228C25.4335 5.51207 25.3784 5.35129 25.3649 5.18451C25.3514 5.01773 25.3799 4.85023 25.4478 4.69719C25.8318 3.7834 26.4186 2.96802 27.1643 2.31219C27.9099 1.65635 28.795 1.17709 29.7532 0.910336C30.3248 0.748423 30.9162 0.666097 31.5104 0.6657C32.4725 0.660232 33.4243 0.863567 34.2995 1.26156C35.1746 1.65955 35.9521 2.24263 36.5779 2.97022C37.2036 3.6978 37.6626 4.55241 37.9228 5.47456C38.1831 6.3967 38.2383 7.36423 38.0847 8.30978L38.0712 8.30643Z" fill="black"/>
<path d="M47.187 38.7755L42.9792 36.8385L43.1273 36.5335C44.7954 33.0591 45.3871 29.169 44.8271 25.3587C44.267 21.5483 42.5806 17.9901 39.9824 15.1372C37.3843 12.2842 33.9921 10.2655 30.2377 9.33824C26.4833 8.41095 22.5367 8.61698 18.9003 9.93011C15.2639 11.2432 12.1024 13.604 9.81824 16.7119C7.5341 19.8198 6.23072 23.5341 6.07407 27.3818C5.91742 31.2296 6.91458 35.0367 8.93858 38.3184C10.9626 41.6001 13.9218 44.2079 17.4395 45.8097L17.7459 45.9504L15.7261 50.2835C15.5516 50.6642 15.535 51.0981 15.6799 51.4909C15.8249 51.8837 16.1197 52.2037 16.5003 52.3813L18.2441 53.1823C18.6265 53.3561 19.0623 53.3726 19.4569 53.2283C19.8515 53.0839 20.1729 52.7904 20.3513 52.4115L22.7077 47.368L22.9568 47.4015C26.1019 47.8261 29.3037 47.4811 32.2846 46.3961C35.2119 45.3326 37.8356 43.5764 39.9294 41.2788L40.0977 41.0979L45.0595 43.3834C45.4419 43.5572 45.8778 43.5737 46.2723 43.4294C46.6669 43.285 46.9883 42.9915 47.1668 42.6126L47.9713 40.8767C48.1459 40.496 48.1625 40.0621 48.0175 39.6693C47.8725 39.2765 47.5777 38.9565 47.1971 38.7788L47.187 38.7755ZM39.9462 34.0369L39.8688 34.2246C38.5132 37.4328 36.1069 40.0899 33.0415 41.7636C29.9761 43.4373 26.432 44.029 22.9859 43.4424C19.5398 42.8559 16.3944 41.1256 14.0617 38.5331C11.7289 35.9407 10.3461 32.6386 10.1382 29.1643V28.7722C10.0633 26.2752 10.5974 23.7974 11.6949 21.551C12.7924 19.3045 14.4205 17.3564 16.4397 15.8734L16.9413 15.5115C17.9781 14.8237 19.0934 14.2612 20.2638 13.8359C22.8484 12.8939 25.6383 12.6534 28.3471 13.1393C31.0558 13.6252 33.586 14.8198 35.6778 16.6006L36.0885 16.9726C38.399 19.0899 40.0069 21.8576 40.6978 24.9073C41.3888 27.957 41.1302 31.1439 39.9563 34.0436L39.9462 34.0369Z" fill="#FF6C37"/>
<path d="M48.6311 39.4357C48.5297 39.1579 48.3739 38.9029 48.1728 38.6855C47.9717 38.4681 47.7293 38.2925 47.4597 38.1689L43.8679 36.5134C45.519 32.9172 46.0662 28.9154 45.4406 25.0107C44.815 21.1059 43.0445 17.4722 40.3515 14.5657C37.6586 11.6592 34.1631 9.60958 30.304 8.67409C26.4449 7.73861 22.3941 7.95899 18.6604 9.30757C14.9267 10.6561 11.6764 13.0728 9.31761 16.2541C6.95882 19.4355 5.59668 23.2396 5.40224 27.189C5.20779 31.1384 6.1897 35.0569 8.22468 38.4526C10.2597 41.8483 13.257 44.5699 16.8403 46.2755L15.1101 50.002C14.8608 50.5441 14.8366 51.1623 15.0428 51.7221C15.2489 52.2819 15.6687 52.738 16.2109 52.9913L17.9546 53.7922C18.2236 53.9167 18.5148 53.9868 18.8112 53.9983C19.1077 54.0098 19.4035 53.9625 19.6814 53.8592C19.9607 53.7587 20.2171 53.6039 20.4356 53.4036C20.654 53.2034 20.8302 52.9618 20.9539 52.693L23.0914 48.0985C26.2681 48.4857 29.4918 48.1159 32.4967 47.0194C35.447 45.9492 38.1004 44.1978 40.2391 41.9089L44.7566 43.9866C45.3006 44.2346 45.9211 44.2586 46.4828 44.0534C47.0446 43.8481 47.5021 43.4303 47.7559 42.8908L48.5638 41.1548C48.6887 40.887 48.759 40.5971 48.7705 40.302C48.7821 40.0069 48.7347 39.7124 48.6311 39.4357ZM47.9579 40.8733L47.1533 42.6093C46.9749 42.9882 46.6535 43.2817 46.2589 43.426C45.8643 43.5703 45.4285 43.5538 45.0461 43.38L40.0842 41.0945L39.9159 41.2755C37.8221 43.573 35.1985 45.3293 32.2712 46.3928C29.2902 47.4777 26.0885 47.8228 22.9433 47.3981L22.6942 47.3646L20.3379 52.4082C20.1594 52.7871 19.838 53.0806 19.4434 53.2249C19.0488 53.3692 18.613 53.3527 18.2306 53.1789L16.4869 52.378C16.1063 52.2004 15.8115 51.8804 15.6665 51.4876C15.5215 51.0947 15.5381 50.6609 15.7126 50.2802L17.7324 45.947L17.4261 45.8063C13.909 44.2023 10.9511 41.5926 8.9287 38.3095C6.90635 35.0264 5.91112 31.2184 6.06972 27.3704C6.22832 23.5224 7.53359 19.8085 9.81933 16.7014C12.1051 13.5942 15.2679 11.2346 18.9051 9.92279C22.5423 8.611 26.4893 8.40641 30.2437 9.33508C33.9981 10.2638 37.3899 12.2837 39.9874 15.1377C42.5849 17.9917 44.2706 21.5506 44.8297 25.3614C45.3889 29.1722 44.7962 33.0625 43.1273 36.5369L42.9792 36.8419L47.187 38.7788C47.5676 38.9565 47.8624 39.2765 48.0074 39.6693C48.1524 40.0621 48.1358 40.496 47.9612 40.8767L47.9579 40.8733Z" fill="black"/>
<path d="M34.7824 27.4484C33.7456 24.6435 29.76 25.0054 29.733 25.0088H29.6926C29.4839 25.0088 24.512 24.8982 23.7378 22.4686C23.28 21.0275 23.9633 19.7139 24.512 18.6583C24.6265 18.4438 24.7342 18.236 24.8284 18.0349C25.266 17.1033 26.6159 16.8553 27.683 17.0296C28.2438 17.1301 28.798 17.2644 29.3426 17.4317C30.716 17.8204 32.1332 18.2226 33.2811 17.5725C33.887 17.2373 34.402 16.9592 34.8228 16.7648C32.4315 14.872 29.5108 13.7616 26.4608 13.5858C23.4109 13.41 20.381 14.1775 17.7863 15.7829C18.0883 15.9943 18.3166 16.2942 18.4393 16.6408C18.6547 17.2776 18.4965 18.055 17.9714 18.9532C17.6954 19.4223 17.5843 19.791 17.6348 20.0155C17.6853 20.24 17.9007 20.3506 18.234 20.5215C18.5672 20.6924 18.9779 20.9136 19.0823 21.366C19.1698 21.7581 19.0048 22.2206 18.5605 22.8271C17.2578 24.6033 12.7706 28.9866 10.8181 29.4558C11.0257 32.0642 11.9267 34.5706 13.4287 36.7179C14.9307 38.8651 16.9796 40.5758 19.365 41.6743C20.3575 42.1315 21.3971 42.4798 22.4653 42.7132C22.1287 42.311 21.8796 41.614 21.984 40.4109C22.1994 37.9109 21.5733 37.6595 21.0212 37.4384L20.9202 37.3982C20.6648 37.2815 20.4241 37.1353 20.2032 36.9625C19.6215 36.5365 18.9965 36.1726 18.3383 35.8767C15.4198 34.5362 15.1909 33.1958 15.514 32.2842C16.0829 30.7025 18.7793 29.6569 19.7589 29.9082C20.4893 30.0959 21.1054 29.7708 21.9099 29.362C22.4199 29.0787 22.9552 28.8431 23.5089 28.6582C24.5524 28.3231 24.8554 28.7923 25.1583 29.2715C25.5698 29.9608 26.216 30.4804 26.9795 30.736C28.5414 31.3559 29.218 33.0282 28.9319 35.5751C28.9141 35.8057 28.8412 36.0288 28.7195 36.2258C28.5977 36.4228 28.4305 36.588 28.2317 36.7078C27.8479 36.9927 27.4103 37.3144 27.3632 39.1207C27.3228 39.9142 27.0793 40.6843 26.6556 41.3576C26.232 42.031 25.6424 42.5853 24.9429 42.9678L24.8251 43.0248C27.8383 43.1736 30.8256 42.4047 33.3888 40.8205C35.952 39.2363 37.9693 36.9121 39.172 34.1575C37.8322 32.5557 35.6105 29.6971 34.7824 27.4484Z" fill="#AFE2E3"/>
<path d="M40.1179 22.9779C39.2694 20.6834 37.8848 18.6226 36.0784 16.9659L35.6677 16.5939C33.5759 14.8131 31.0457 13.6184 28.337 13.1326C25.6282 12.6467 22.8383 12.8871 20.2537 13.8292C19.0833 14.2545 17.968 14.8169 16.9312 15.5048L16.4297 15.8667C14.4104 17.3497 12.7823 19.2978 11.6848 21.5443C10.5873 23.7907 10.0532 26.2685 10.1281 28.7655V29.1576C10.3242 32.641 11.7016 35.9552 14.0349 38.5584C16.3683 41.1615 19.5197 42.8997 22.9739 43.4888C26.4282 44.0779 29.9811 43.4831 33.0517 41.8015C36.1224 40.1199 38.5292 37.4511 39.8789 34.2313L39.9563 34.0436C41.3918 30.5037 41.4494 26.5579 40.1179 22.9779ZM17.1568 16.1851C17.4471 16.3172 17.6733 16.5581 17.7863 16.8553C17.9377 17.2977 17.7863 17.8875 17.3756 18.6147C16.9918 19.2682 16.8673 19.7708 16.9885 20.1964C17.071 20.4044 17.1963 20.593 17.3563 20.7499C17.5163 20.9069 17.7074 21.0288 17.9175 21.108C18.1599 21.2387 18.3888 21.3593 18.4258 21.5135C18.4494 21.614 18.4258 21.8687 18.0185 22.4283C16.4162 24.6133 12.2589 28.3466 10.8013 28.7789C10.7238 26.3189 11.2645 23.8786 12.3743 21.6794C13.4842 19.4802 15.128 17.5916 17.1568 16.1851ZM23.1992 42.4652C22.7717 42.1803 22.5831 41.4598 22.6673 40.4544C22.9063 37.6897 22.1489 37.1502 21.2838 36.805L21.1929 36.7681C20.9851 36.6676 20.7887 36.5451 20.6072 36.4028C19.9916 35.9524 19.3305 35.5671 18.6346 35.2534C17.2881 34.6301 15.7497 33.6448 16.1604 32.4987C16.6114 31.2487 18.9779 30.3841 19.604 30.5449C20.5836 30.7963 21.3848 30.3807 22.2331 29.9417C22.7078 29.6788 23.2058 29.46 23.7209 29.2882C24.2764 29.114 24.3269 29.1944 24.6063 29.6234C25.0909 30.4318 25.8486 31.0424 26.7438 31.3459C28.3226 31.9726 28.4505 33.9431 28.2755 35.488C28.2679 35.6272 28.2242 35.7621 28.1487 35.8796C28.0732 35.997 27.9684 36.093 27.8446 36.1582C27.2521 36.6006 26.7573 37.1234 26.7034 39.0939C26.6695 39.768 26.4627 40.4223 26.1026 40.9943C25.7425 41.5663 25.2413 42.0369 24.6467 42.3613C24.0744 42.6595 23.5459 42.6964 23.1992 42.4652ZM30.6992 42.13C28.8265 42.8197 26.8327 43.124 24.8385 43.0248L24.9563 42.9678C25.6559 42.5853 26.2455 42.031 26.6691 41.3576C27.0927 40.6842 27.3363 39.9142 27.3767 39.1207C27.4238 37.3144 27.8614 36.9927 28.2452 36.7078C28.4439 36.588 28.6112 36.4228 28.7329 36.2258C28.8547 36.0288 28.9275 35.8057 28.9453 35.5751C29.2315 33.0282 28.5549 31.3559 26.9929 30.736C26.2294 30.4804 25.5833 29.9608 25.1718 29.2715C24.8587 28.7923 24.5659 28.3399 23.5223 28.6582C22.9686 28.8431 22.4334 29.0787 21.9234 29.362C21.1289 29.7708 20.5028 30.0959 19.7723 29.9082C18.7928 29.6569 16.0964 30.7025 15.5275 32.2842C15.1909 33.1823 15.4333 34.5329 18.3518 35.8767C19.0099 36.1726 19.635 36.5365 20.2167 36.9625C20.4376 37.1353 20.6783 37.2815 20.9337 37.3982L21.0347 37.4384C21.5867 37.6595 22.2129 37.9109 21.9974 40.4109C21.8931 41.614 22.1523 42.311 22.4788 42.7131C21.4106 42.4798 20.371 42.1315 19.3785 41.6743C16.993 40.5758 14.9441 38.8651 13.4422 36.7179C11.9402 34.5706 11.0391 32.0642 10.8316 29.4558C12.7706 28.9866 17.2578 24.6033 18.574 22.8271C19.0183 22.2206 19.1832 21.7581 19.0957 21.366C18.9914 20.9136 18.5975 20.6958 18.2474 20.5215C17.8973 20.3473 17.7088 20.2199 17.6482 20.0155C17.5876 19.8111 17.6954 19.4223 17.9849 18.9532C18.51 18.055 18.6581 17.2776 18.4528 16.6408C18.3301 16.2942 18.1018 15.9943 17.7997 15.7829C20.3916 14.1835 23.4162 13.4195 26.4605 13.5952C29.5049 13.771 32.4205 14.8779 34.8093 16.7648C34.3885 16.9592 33.8735 17.2306 33.2676 17.5725C32.1197 18.2226 30.7025 17.8204 29.3291 17.4317C28.7846 17.2644 28.2304 17.1301 27.6695 17.0296C26.6024 16.862 25.2526 17.11 24.815 18.0349C24.7207 18.236 24.613 18.4438 24.4985 18.6583C23.9498 19.7139 23.2665 21.0275 23.7243 22.4686C24.4985 24.8982 29.4705 25.0054 29.6792 25.0088H29.7196C29.76 25.0088 33.7591 24.6435 34.7689 27.4484C35.597 29.6971 37.8187 32.5557 39.145 34.1508C38.3487 35.9772 37.1901 37.6247 35.7388 38.9946C34.2876 40.3646 32.5734 41.4287 30.6992 42.1233V42.13ZM39.4514 33.4538C38.2766 32.0262 36.1727 29.2983 35.4119 27.2239C34.2236 24.0101 30.0461 24.3117 29.6691 24.3452C28.3495 24.3218 24.8823 23.9029 24.3639 22.2742C23.9902 21.0979 24.576 19.9686 25.0944 18.9733C25.2122 18.7487 25.3233 18.5343 25.431 18.3265C25.7036 17.74 26.7405 17.5624 27.5753 17.6931C28.1088 17.7884 28.6361 17.916 29.154 18.0751C30.5881 18.484 32.2106 18.9465 33.6076 18.1556C34.1828 17.8195 34.7761 17.5152 35.385 17.244C37.6356 19.2155 39.2311 21.8216 39.9597 24.7166C40.6884 27.6116 40.5158 30.6587 39.4648 33.4538H39.4514Z" fill="black"/>
<path d="M18.0185 22.425C16.4128 24.6134 12.2454 28.3466 10.7946 28.7923C10.7169 26.3315 11.2578 23.8903 12.3683 21.6904C13.4787 19.4905 15.1235 17.6016 17.1534 16.1951C17.4443 16.3275 17.6715 16.5681 17.7862 16.8654C17.9377 17.3077 17.7862 17.8975 17.3755 18.6248C16.9918 19.2782 16.8672 19.7809 16.9884 20.2065C17.071 20.4145 17.1963 20.603 17.3563 20.76C17.5162 20.917 17.7074 21.0389 17.9175 21.118C18.1599 21.2487 18.3888 21.3694 18.4258 21.5236C18.4494 21.6107 18.4258 21.8654 18.0185 22.425ZM28.2754 35.4947C28.4505 33.9498 28.3226 31.9793 26.7438 31.3526C25.8486 31.0491 25.0909 30.4386 24.6062 29.6301C24.3268 29.2011 24.2696 29.1207 23.7209 29.295C23.2058 29.4668 22.7077 29.6855 22.233 29.9485C21.3847 30.3875 20.5836 30.803 19.604 30.5517C19.5434 30.5372 19.4812 30.5305 19.4189 30.5316C18.6076 30.5316 16.5744 31.356 16.1603 32.5054C15.7463 33.6549 17.2779 34.6368 18.6345 35.2601C19.3305 35.5738 19.9916 35.9591 20.6071 36.4096C20.7887 36.5518 20.9851 36.6743 21.1929 36.7748L21.2838 36.8117C22.1489 37.1468 22.9063 37.6964 22.6673 40.4612C22.5831 41.4665 22.7716 42.1803 23.1992 42.4719C23.5358 42.7031 24.0744 42.6663 24.6466 42.3713C25.2413 42.047 25.7425 41.5764 26.1026 41.0044C26.4626 40.4324 26.6695 39.7781 26.7034 39.1039C26.7573 37.1334 27.2521 36.6106 27.8446 36.1683C27.9689 36.1028 28.0739 36.0063 28.1495 35.8882C28.225 35.7701 28.2684 35.6345 28.2754 35.4947ZM39.4581 33.4505C40.5071 30.6543 40.6791 27.6071 39.9512 24.7116C39.2233 21.8161 37.6299 19.2087 35.3816 17.234C34.7721 17.5073 34.1777 17.8127 33.6008 18.1489C32.2038 18.9398 30.5712 18.484 29.1473 18.0685C28.6293 17.9093 28.1021 17.7817 27.5685 17.6864C26.7337 17.5557 25.6969 17.7333 25.4242 18.3198C25.3266 18.5276 25.2155 18.7421 25.0876 18.9666C24.5692 19.9719 23.9835 21.0912 24.3571 22.2675C24.8755 23.8962 28.3428 24.3151 29.6623 24.3386C29.733 24.3386 29.9417 24.3184 30.2413 24.3184C31.5171 24.3184 34.4424 24.6134 35.4051 27.2172C36.176 29.2916 38.2833 32.0229 39.4581 33.4505Z" fill="#70D44B"/>
</svg>
