<svg width="70" height="70" viewBox="0 0 70 70" fill="none" xmlns="http://www.w3.org/2000/svg">
<path d="M29.108 22.1173H26.8013C26.8013 22.8024 26.8013 23.4781 26.8013 24.1259H29.108C29.0849 23.4781 29.0849 22.8024 29.108 22.1173Z" fill="#AC7D5A"/>
<path d="M45.3195 24.1259H47.6263C47.6263 23.9022 47.6263 23.6599 47.6263 23.4501C47.5468 23.0102 47.5036 22.5644 47.4971 22.1173H45.3103C45.3518 22.8024 45.3426 23.4781 45.3195 24.1259Z" fill="#AC7D5A"/>
<path d="M41.0152 11.4403C41.4489 11.9942 41.8188 12.5962 42.1178 13.2345C42.4853 13.5273 42.8182 13.862 43.1097 14.2319C44.3276 15.7745 44.9551 17.8903 45.1857 20.0714H47.4925C47.211 17.4242 46.4729 14.7725 44.9043 12.7825C44.176 11.8605 43.2677 11.0997 42.236 10.5473C41.2042 9.99491 40.0711 9.66275 38.9069 9.57146C39.7156 10.0607 40.4299 10.6939 41.0152 11.4403Z" fill="#AC7D5A"/>
<path d="M29.5047 13.0807C27.9823 15.0381 27.2488 17.5594 26.9535 20.0714H29.2602C29.5278 18.0208 30.1275 16.0308 31.3086 14.5162C32.7203 12.7033 34.7686 11.8224 37.5736 11.8224C37.7627 11.8224 37.9381 11.8224 38.118 11.8457C36.937 11.0148 35.5192 10.5974 34.0813 10.6573C33.3694 10.6538 32.6594 10.7289 31.9637 10.881C31.0148 11.4521 30.1807 12.1983 29.5047 13.0807Z" fill="#AC7D5A"/>
<path d="M51.8937 24.1259H49.8545C49.9283 24.6712 50.0114 25.277 50.0944 25.9015C50.648 29.8955 51.5661 36.5878 52.0967 42.3807C52.3919 45.615 52.5349 48.2482 52.5165 50.2009C52.4934 53.2115 52.1336 54.7308 51.2247 55.6256C50.5419 56.3013 49.2963 56.9864 44.8536 57.4059C42.2931 57.6529 38.9715 57.7787 35.2577 57.7787C31.2717 57.7787 27.1288 57.6249 23.8764 57.3546C22.174 57.2101 20.7531 57.0423 19.6458 56.8513C19.7796 57.6156 19.9826 58.1422 20.2594 58.3612C22.6446 60.2254 51.746 60.8452 54.2557 58.3612C56.8946 55.784 51.6492 24.1818 51.8937 24.1259Z" fill="#D4C9BB"/>
<path d="M45.3195 24.1259L43.4511 24.1259C43.3329 25.4734 43.1311 26.812 42.8467 28.1339C42.7893 28.3912 42.6471 28.6211 42.4435 28.7862C42.2398 28.9513 41.9868 29.0417 41.7257 29.0426C41.6387 29.041 41.5521 29.03 41.4673 29.01C41.3191 28.9765 41.1789 28.9136 41.0549 28.825C40.9309 28.7364 40.8255 28.6238 40.7448 28.4938C40.6642 28.3638 40.6098 28.2189 40.585 28.0675C40.5601 27.9161 40.5652 27.7613 40.6 27.6119C40.8374 26.4588 41.013 25.2935 41.1259 24.1212H26.363C26.4789 25.2899 26.6622 26.4508 26.912 27.5979C26.9647 27.8903 26.9049 28.1921 26.7446 28.4413C26.5844 28.6906 26.3359 28.8686 26.05 28.9389C25.7641 29.0092 25.4624 28.9664 25.2067 28.8193C24.951 28.6723 24.7606 28.4321 24.6745 28.1478C24.3754 26.8211 24.1627 25.476 24.0378 24.1212H22.0956C22.4785 24.1212 19.1153 45.8201 19.4613 54.7261C22.4923 55.3506 29.0295 55.7281 35.2715 55.7281C42.1316 55.7281 48.6504 55.2621 49.7253 54.1902C51.7921 52.1489 48.6366 30.8322 47.7323 24.1212H45.3149L45.3195 24.1259Z" fill="#D4C9BB"/>
<path d="M52.1151 42.3807C51.5846 36.5878 50.6665 29.8955 50.1129 25.9015C50.0299 25.277 49.9468 24.6712 49.873 24.1259C49.7484 23.2358 49.6562 22.5181 49.6285 22.2245V22.1173C49.6276 21.8467 49.5723 21.5792 49.466 21.3309C49.3598 21.0825 49.2047 20.8586 49.0103 20.6725C48.6058 20.288 48.0709 20.0746 47.5155 20.076H43.5895C43.571 17.7204 43.0748 15.3936 42.1317 13.2392C41.8326 12.6009 41.4627 11.9989 41.0291 11.4449C40.4475 10.7015 39.7379 10.07 38.9346 9.58079C37.4711 8.72272 35.8005 8.29195 34.1089 8.33646C30.7965 8.33646 28.2268 9.47826 26.4783 11.7292C24.7298 13.9802 24.0517 17.1679 23.9317 20.0807H19.5997C19.2959 20.0806 18.9956 20.1457 18.7185 20.2717C18.443 20.3915 18.196 20.5695 17.9942 20.7937C17.7973 21.0153 17.6508 21.2778 17.5652 21.5627C17.4811 21.845 17.4606 22.1428 17.5052 22.4342C17.4683 23.1379 17.1869 25.4541 16.9147 27.7051C16.3703 32.2024 15.6229 38.3681 15.24 43.6903C15.0415 46.0521 14.966 48.4229 15.014 50.7927C15.1155 53.589 15.5445 54.9871 16.5595 55.7933C17.1638 56.2594 18.0588 56.5763 19.632 56.8513H19.6827C20.79 57.0423 22.2109 57.2101 23.9133 57.3546C27.1657 57.6249 31.2947 57.7787 35.2946 57.7787C38.9853 57.7787 42.33 57.6529 44.8905 57.4059C49.3332 56.9864 50.5788 56.3013 51.2616 55.6256C52.1843 54.7308 52.5303 53.2115 52.5534 50.2009C52.5534 48.2482 52.4104 45.615 52.1151 42.3807ZM28.2822 13.1553C29.2036 11.9757 30.513 11.1689 31.9729 10.881C32.6686 10.7288 33.3787 10.6538 34.0905 10.6573C35.5284 10.5974 36.9462 11.0148 38.1272 11.8457C38.5333 12.1486 38.8965 12.5061 39.2068 12.9083C40.6692 14.7725 41.1813 17.4848 41.2736 20.09H26.2292C26.3307 17.5687 26.852 14.9915 28.2822 13.1553ZM49.73 54.1948C48.6366 55.2807 42.1363 55.7328 35.2761 55.7328C29.0342 55.7328 22.4969 55.3553 19.4659 54.7308C18.9078 54.6564 18.3691 54.4745 17.8789 54.1948C15.2677 52.1443 20.0149 22.1173 19.5813 22.1173L23.9133 22.1173C23.9363 22.8257 23.9825 23.5154 24.0424 24.1259C24.1673 25.4807 24.38 26.8258 24.6791 28.1525C24.7652 28.4367 24.9556 28.6769 25.2113 28.824C25.467 28.971 25.7687 29.0138 26.0546 28.9436C26.3405 28.8733 26.589 28.6953 26.7492 28.446C26.9095 28.1967 26.9694 27.895 26.9166 27.6026C26.6668 26.4555 26.4835 25.2946 26.3676 24.1259C26.303 23.5061 26.2523 22.8303 26.2246 22.1173L41.2828 22.1173C41.2551 22.8257 41.2044 23.5154 41.1444 24.1259C41.0315 25.2982 40.8559 26.4634 40.6185 27.6165C40.5837 27.7659 40.5786 27.9208 40.6034 28.0722C40.6283 28.2235 40.6826 28.3684 40.7633 28.4985C40.844 28.6285 40.9493 28.7411 41.0734 28.8297C41.1974 28.9183 41.3376 28.9812 41.4858 29.0147C41.5705 29.0347 41.6571 29.0456 41.7441 29.0473C42.0052 29.0464 42.2583 28.956 42.4619 28.7909C42.6656 28.6258 42.8078 28.3958 42.8652 28.1385C43.1496 26.8166 43.3514 25.478 43.4696 24.1306C43.5249 23.5061 43.5711 22.8303 43.5941 22.1219H47.534C47.5405 22.5691 47.5837 23.0149 47.6632 23.4548C47.6908 23.6599 47.7231 23.8882 47.7554 24.1306C48.6643 30.8369 51.7968 52.1536 49.73 54.1948Z" fill="#3F3F41"/>
</svg>
