<svg width="70" height="70" viewBox="0 0 70 70" fill="none" xmlns="http://www.w3.org/2000/svg">
<path d="M57.5351 35.7064L58.2952 35.8808C58.2952 36.0023 58.2952 36.1239 58.2952 36.2401C58.2932 36.2595 58.2932 36.2789 58.2952 36.2983C58.3217 36.498 58.3612 36.6958 58.4133 36.8901C58.4133 36.9588 58.4544 37.0275 58.4749 37.0962C58.5151 37.2433 58.5632 37.3879 58.6187 37.5296L58.7112 37.7515C58.7724 37.8943 58.841 38.0336 58.9166 38.169C58.9478 38.2324 58.9821 38.2941 59.0193 38.3539C59.1329 38.553 59.2599 38.7437 59.3993 38.9246C59.5495 39.1224 59.7125 39.3096 59.8872 39.4848C59.954 39.5535 60.0259 39.6116 60.0978 39.675C60.1697 39.7385 60.3186 39.8864 60.4367 39.9815C60.5548 40.0767 60.6113 40.1084 60.6986 40.1718L61.0376 40.4096L61.3354 40.5734L61.6898 40.7689L62.0133 40.901C62.1366 40.9486 62.2547 41.0067 62.3831 41.049L62.722 41.1494C62.8504 41.1864 62.9788 41.2287 63.1124 41.2551C63.2459 41.2815 63.2818 41.2868 63.364 41.3026C63.4102 41.6408 63.441 41.9949 63.4616 42.3595C59.5842 42.9197 56.0304 39.675 57.5351 35.7064Z" fill="#EFEFEF"/>
<path d="M62.7529 38.9035C62.6604 38.8665 62.5629 38.8242 62.4705 38.7767L62.3061 38.6869C62.1983 38.6234 62.0904 38.56 61.9877 38.4913L61.8285 38.3751C61.7265 38.2999 61.6287 38.2187 61.5358 38.132L61.4074 38.021C61.1761 37.7964 60.9757 37.5404 60.8116 37.26C60.7875 37.2243 60.7653 37.1872 60.7449 37.1491L60.6165 36.8849C60.6165 36.8426 60.5806 36.8003 60.56 36.7527L60.5138 36.6153C61.4908 37.0946 62.2803 37.9015 62.7529 38.9035Z" fill="#EFEFEF"/>
<path d="M7.98774 37.0117C7.98175 37.0929 7.95416 37.1709 7.90797 37.2371C7.86177 37.3033 7.79874 37.3551 7.72583 37.3869C7.48516 37.4892 7.2589 37.6243 7.05308 37.7885C7.16767 36.7122 7.3391 35.6432 7.56663 34.5861C8.51155 30.5911 9.66191 26.3688 11.4593 23.1453C10.2944 26.1116 9.36689 29.1709 8.68616 32.2927C8.34943 33.8475 8.11609 35.4242 7.98774 37.0117Z" fill="#F7D858"/>
<path d="M58.6753 48.1407C59.9247 48.1536 61.1716 48.0242 62.3934 47.7549C61.1814 48.7114 59.1888 49.0232 57.5095 49.1025C57.6072 48.7811 57.681 48.4525 57.7303 48.1196C58.0128 48.1301 58.3261 48.1407 58.6753 48.1407Z" fill="#F7D858"/>
<path d="M43.3663 48.0456C43.3065 48.3769 43.2739 48.7127 43.2688 49.0496H19.9894C20.0849 48.7262 20.157 48.3959 20.2051 48.0615L43.3663 48.0456Z" fill="#F7D858"/>
<path d="M5.14268 41.0596C4.68298 42.7823 4.43624 44.5578 4.4083 46.344C4.40143 46.5665 4.43785 46.7882 4.51546 46.996C4.59308 47.2039 4.7103 47.3936 4.86023 47.5541C5.11856 47.8255 5.46297 47.9924 5.83083 48.0244C5.76791 48.3554 5.73357 48.6913 5.72814 49.0285H3.84851C3.7756 49.0231 3.70445 49.003 3.63913 48.9693C3.5738 48.9355 3.51561 48.8888 3.46788 48.8319C3.42016 48.7749 3.38385 48.7088 3.36103 48.6373C3.33822 48.5659 3.32935 48.4905 3.33495 48.4155C3.35036 46.8883 3.65337 42.7823 5.14268 41.0596Z" fill="#F7D858"/>
<path d="M37.8764 20.7726C39.453 21.4913 41.3327 26.6542 42.3854 30.739H40.7626C39.8125 27.4891 38.1229 22.7384 36.1714 21.8506C34.867 21.264 31.6933 21.0368 28.4117 21.0315V20.0803C32.2376 19.9852 36.4693 20.1384 37.8764 20.7726Z" fill="#F7D858"/>
<path d="M48.964 43.2368C48.701 43.239 48.4384 43.2602 48.1783 43.3002C48.8611 42.7384 49.6837 42.3854 50.5521 42.2816C51.4205 42.1777 52.2998 42.3272 53.0896 42.7129C53.8795 43.0986 54.548 43.705 55.019 44.4629C55.4899 45.2208 55.7444 46.0997 55.7532 46.9993V47.1472C55.7478 47.8143 55.6024 48.4722 55.3269 49.076L54.6645 49.0338C54.6469 47.49 54.0385 46.0157 52.9714 44.9304C51.9043 43.8452 50.4644 43.2367 48.964 43.2368Z" fill="#F7D858"/>
<path d="M19.7943 44.5632C19.7532 44.4522 19.7121 44.3359 19.6608 44.2302C19.6094 44.1245 19.5888 44.0717 19.5478 43.9977C19.5067 43.9237 19.4399 43.7758 19.3834 43.6648L19.2602 43.464C19.127 43.2435 18.983 43.03 18.8288 42.8246C18.7877 42.7717 18.7466 42.7136 18.7055 42.666C18.6645 42.6185 18.5669 42.5075 18.495 42.4282C18.4231 42.349 18.3615 42.2697 18.2896 42.1957L18.0739 41.9896C17.9968 41.9157 17.9198 41.8417 17.8376 41.773L17.6117 41.588C17.5244 41.5193 17.4371 41.4506 17.3446 41.3872L17.1084 41.2287C17.016 41.1653 16.9184 41.1071 16.8208 41.049L16.5743 40.9169C16.4742 40.8605 16.3713 40.8094 16.2662 40.7636C16.1846 40.7213 16.1006 40.6842 16.0145 40.6527C15.9067 40.6051 15.7937 40.5628 15.6807 40.5258L15.4291 40.4413L15.0593 40.3409L14.8179 40.2828C14.6793 40.2563 14.5355 40.2352 14.3969 40.2193C14.2582 40.2035 14.2582 40.1929 14.1863 40.1876C13.9774 40.1665 13.7617 40.1559 13.5392 40.1559C13.3167 40.1559 13.101 40.1665 12.8921 40.1876L12.6867 40.2193C12.5429 40.2193 12.3991 40.2563 12.2605 40.2828L12.0242 40.3409L11.6493 40.4413C11.5672 40.4413 11.4902 40.4941 11.408 40.5205L11.0639 40.6527L10.8225 40.7583C10.7147 40.8059 10.6017 40.8587 10.499 40.9169L10.2679 41.0437L9.95977 41.2339L9.74405 41.3819C9.64134 41.4506 9.54379 41.5246 9.44622 41.6039C9.34864 41.6831 9.31783 41.7043 9.2562 41.7624C9.19457 41.8205 9.06105 41.9368 8.96347 42.0266L8.80428 42.1852C8.69643 42.2908 8.5937 42.4071 8.49613 42.5234L8.3883 42.6449C8.25478 42.8087 8.1315 42.9778 8.01339 43.1733C7.99847 43.1906 7.98636 43.2102 7.97747 43.2315C7.87476 43.3865 7.77718 43.545 7.68473 43.7071L7.5923 43.892C7.53067 44.0188 7.46389 44.1457 7.4074 44.2778L7.31496 44.4997C7.26874 44.6213 7.21738 44.7481 7.17629 44.8696C7.13521 44.9912 7.12496 45.0335 7.10442 45.118C7.08388 45.2026 7.04791 45.3241 7.02223 45.4298C6.88739 45.597 6.76387 45.7736 6.65249 45.9582H6.47273C6.60625 43.0254 7.32011 39.8494 8.48073 39.3791C8.90052 39.205 9.26598 38.9159 9.53756 38.5433C9.80912 38.1707 9.97645 37.7288 10.0214 37.2653C10.1497 35.772 10.3744 34.289 10.6941 32.8264C12.1988 26.4428 14.099 20.3181 17.6784 17.8767C22.5828 16.6032 35.6527 15.3402 39.6379 18.1515C43.4895 20.873 45.2099 29.0163 45.7389 32.039C45.7867 32.3651 45.9297 32.6686 46.1489 32.9093C46.368 33.1499 46.6531 33.3163 46.9663 33.3865C48.6559 33.7195 54.5309 35.0459 57.5249 35.7381C56.0202 39.7067 59.5791 42.9514 63.4872 42.3912C63.5338 43.3101 63.5338 44.2309 63.4872 45.1497C62.0544 45.9741 59.5175 46.1115 57.7047 46.0375C57.6974 45.9876 57.6871 45.9382 57.6738 45.8895C57.6539 45.7507 57.6264 45.6131 57.5917 45.4774C57.5917 45.4192 57.5609 45.3611 57.5455 45.303C57.5095 45.155 57.4633 45.0018 57.4171 44.8591C57.4065 44.8226 57.3927 44.7873 57.376 44.7534C57.1243 44.0414 56.7599 43.3772 56.2975 42.7876L56.2513 42.7295C56.1678 42.6207 56.0787 42.5166 55.9843 42.4177L55.8405 42.2539L55.5837 42.0055L55.3834 41.8205L55.1318 41.6197L54.8904 41.4348L54.6336 41.2604L54.3614 41.0913L54.1046 40.9486L53.8017 40.8006L53.5449 40.6844L53.2111 40.5575L52.9543 40.473C52.8362 40.436 52.7078 40.4043 52.5846 40.3779L52.3432 40.3145C52.2045 40.288 52.0607 40.2669 51.9169 40.251L51.7115 40.2193C51.4958 40.2193 51.2801 40.1876 51.0593 40.1876C50.8385 40.1876 50.6279 40.1876 50.4122 40.2193C50.3403 40.2193 50.2736 40.2193 50.2017 40.251C50.1298 40.2828 49.9192 40.288 49.7806 40.3145L49.5392 40.3726L49.1694 40.473L48.9229 40.5523L48.584 40.6844L48.3375 40.7901C48.2296 40.8376 48.1218 40.8905 48.0191 40.9486L47.788 41.0754L47.4799 41.2657L47.2642 41.4136C47.1624 41.4816 47.0647 41.5557 46.9714 41.6356C46.9047 41.6884 46.8379 41.736 46.7763 41.7941C46.7147 41.8522 46.5811 41.9685 46.4887 42.0583L46.3192 42.2169C46.2165 42.3225 46.1189 42.4335 46.0214 42.5498C45.9238 42.666 45.9443 42.6343 45.9084 42.6819C45.7749 42.8423 45.6498 43.0099 45.5335 43.1839L45.4873 43.2526C45.3897 43.4059 45.2921 43.5591 45.2048 43.7176L45.1124 43.9079C45.0456 44.0347 44.984 44.1563 44.9275 44.2831C44.871 44.4099 44.8659 44.4363 44.835 44.5156C44.8042 44.5949 44.7375 44.7587 44.6964 44.8802L44.6194 45.1339C44.6194 45.2343 44.5629 45.3347 44.5372 45.4404C44.4056 45.609 44.2839 45.7854 44.1726 45.9688H28.3911V33.841H41.5843C41.5843 33.841 41.497 33.4711 41.3429 32.8528H44.3883C44.4605 32.8523 44.5318 32.8351 44.5968 32.8025C44.6617 32.7699 44.7188 32.7227 44.7636 32.6643C44.8085 32.606 44.84 32.5381 44.856 32.4655C44.8719 32.3929 44.8718 32.3176 44.8556 32.2451L44.6964 31.5581C44.2804 29.698 42.0156 20.3445 38.7032 18.8385C35.3908 17.3324 23.5073 17.9348 21.1347 18.643C18.5669 19.4251 16.9081 22.0303 15.8759 24.7148C13.6573 28.3663 13.1335 33.841 13.1335 33.841H26.3575V45.9318H20.1948C20.1948 45.879 20.1948 45.8261 20.1589 45.7733C20.1229 45.7204 20.1178 45.5513 20.0921 45.4404L20.0151 45.155C19.9843 45.044 19.9483 44.9278 19.9124 44.8168C19.8764 44.7058 19.8302 44.6477 19.7943 44.5632ZM32.7512 34.1898H30.7689C30.4965 34.1898 30.2352 34.3011 30.0426 34.4993C29.85 34.6976 29.7418 34.9664 29.7418 35.2467C29.7418 35.527 29.85 35.7958 30.0426 35.994C30.2352 36.1922 30.4965 36.3036 30.7689 36.3036H32.7512C33.0236 36.3036 33.2848 36.1922 33.4775 35.994C33.6701 35.7958 33.7783 35.527 33.7783 35.2467C33.7783 34.9664 33.6701 34.6976 33.4775 34.4993C33.2848 34.3011 33.0236 34.1898 32.7512 34.1898ZM22.1412 36.3036H24.1235C24.3959 36.3036 24.6572 36.1922 24.8498 35.994C25.0424 35.7958 25.1506 35.527 25.1506 35.2467C25.1506 34.9664 25.0424 34.6976 24.8498 34.4993C24.6572 34.3011 24.3959 34.1898 24.1235 34.1898H22.1412C21.8688 34.1898 21.6076 34.3011 21.4149 34.4993C21.2223 34.6976 21.1141 34.9664 21.1141 35.2467C21.1141 35.527 21.2223 35.7958 21.4149 35.994C21.6076 36.1922 21.8688 36.3036 22.1412 36.3036Z" fill="#F7D858"/>
<path d="M26.3575 20.1543V21.0421C24.3241 21.0715 22.294 21.2197 20.277 21.486C20.6923 21.1178 21.1764 20.8408 21.6995 20.6722C23.2349 20.3628 24.7933 20.1895 26.3575 20.1543Z" fill="#F7D858"/>
<path d="M11.4285 43.2368C11.1655 43.239 10.9029 43.2602 10.6428 43.3002C11.3256 42.7384 12.1482 42.3854 13.0166 42.2816C13.885 42.1777 14.7643 42.3272 15.5541 42.7129C16.344 43.0986 17.0125 43.705 17.4835 44.4629C17.9545 45.2208 18.2089 46.0997 18.2177 46.9993V47.142C18.2124 47.7926 18.076 48.4349 17.8171 49.0285H17.129C17.11 47.4857 16.5011 46.0126 15.4341 44.9286C14.3671 43.8445 12.928 43.2366 11.4285 43.2368Z" fill="#F7D858"/>
<path d="M44.5423 45.4721C44.5423 45.5566 44.5064 45.6465 44.4859 45.7363C44.4653 45.8261 44.455 45.8631 44.4448 45.9318H44.1931C44.3044 45.7484 44.4262 45.572 44.5578 45.4034L44.5423 45.4721Z" fill="#727272"/>
<path d="M44.4191 48.0456C44.5456 48.9692 44.852 49.8569 45.32 50.6557C45.788 51.4544 46.408 52.1477 47.1426 52.694C47.8773 53.2403 48.7116 53.6283 49.5955 53.8347C50.4795 54.0412 51.3948 54.0618 52.2867 53.8955C51.436 54.5258 50.4327 54.9022 49.3874 54.9834C48.3421 55.0646 47.2953 54.8473 46.3623 54.3555C45.4294 53.8637 44.6464 53.1165 44.0996 52.1962C43.5529 51.2759 43.2636 50.2181 43.2636 49.1395V49.0496C43.2713 48.7179 43.3056 48.3874 43.3663 48.0614L44.4191 48.0456Z" fill="#727272"/>
<path d="M46.4065 47.0046C46.4171 46.2914 46.5816 45.5896 46.888 44.9499C47.1944 44.3102 47.6351 43.7485 48.1783 43.3055C48.9815 43.1816 49.8013 43.2375 50.5817 43.4692C51.3621 43.7009 52.0848 44.1031 52.7004 44.6483C53.316 45.1935 53.8101 45.8689 54.1491 46.6285C54.488 47.388 54.6638 48.2139 54.6644 49.0496C54.6644 49.0761 54.6645 49.1025 54.6645 49.1289C54.6635 49.5193 54.6256 49.9086 54.5515 50.2915C53.9231 51.0155 53.0963 51.5267 52.1801 51.7576C51.2638 51.9886 50.301 51.9284 49.4186 51.5852C48.5362 51.2419 47.7756 50.6316 47.237 49.8346C46.6984 49.0377 46.407 48.0915 46.4014 47.1208V46.994L46.4065 47.0046Z" fill="#727272"/>
<path d="M17.1238 49.0496C17.1238 49.0813 17.1238 49.113 17.1238 49.1447C17.1229 49.5351 17.085 49.9245 17.0108 50.3073C16.3825 51.0314 15.5557 51.5426 14.6394 51.7735C13.7232 52.0044 12.7604 51.9443 11.878 51.601C10.9956 51.2577 10.235 50.6474 9.69639 49.8505C9.15778 49.0535 8.86644 48.1074 8.86077 47.1367V47.0098C8.87137 46.2967 9.03582 45.5949 9.34223 44.9552C9.64864 44.3154 10.0894 43.7538 10.6325 43.3107C11.4358 43.1861 12.2556 43.2412 13.0363 43.4723C13.8169 43.7033 14.54 44.1049 15.1561 44.6496C15.7723 45.1943 16.267 45.8694 16.6065 46.6287C16.9461 47.388 17.1226 48.2138 17.1238 49.0496Z" fill="#727272"/>
<path d="M5.95916 48.0456H6.88359C7.00946 48.969 7.3153 49.8566 7.78278 50.6553C8.25025 51.4541 8.86969 52.1474 9.60397 52.6937C10.3382 53.24 11.1722 53.6281 12.0558 53.8346C12.9394 54.0411 13.8545 54.0618 14.7461 53.8955C13.8954 54.5258 12.8921 54.9022 11.8468 54.9834C10.8015 55.0646 9.75472 54.8473 8.82173 54.3555C7.88874 53.8637 7.10573 53.1165 6.55898 52.1962C6.01223 51.2759 5.72294 50.2182 5.72295 49.1395C5.72041 49.1078 5.72041 49.076 5.72295 49.0444C5.72838 48.7072 5.76276 48.3712 5.82567 48.0403L5.95916 48.0456Z" fill="#727272"/>
<path d="M7.00173 45.4721C7.00173 45.5566 6.96579 45.6465 6.94525 45.7363C6.9247 45.8261 6.94524 45.8631 6.90415 45.9318H6.6525C6.76388 45.7472 6.88742 45.5706 7.02226 45.4034C7.01273 45.4253 7.00584 45.4484 7.00173 45.4721Z" fill="#727272"/>
<path d="M40.7626 30.739L28.4373 30.739V21.0421C31.7189 21.0421 34.8927 21.2746 36.1971 21.8612C38.1332 22.7384 39.8125 27.4891 40.7626 30.739Z" fill="#CFF2E6"/>
<path d="M15.8758 24.7412C15.0441 26.986 14.4903 29.3296 14.2274 31.7167L14.1709 32.3349C14.1659 32.4025 14.1746 32.4704 14.1964 32.5344C14.2181 32.5984 14.2525 32.657 14.2974 32.7066C14.3422 32.7562 14.3966 32.7958 14.457 32.8228C14.5174 32.8498 14.5826 32.8636 14.6485 32.8634H25.8747C26.0019 32.8634 26.1239 32.915 26.2143 33.007C26.3047 33.099 26.3561 33.224 26.3575 33.3548V33.8516H13.1335C13.1335 33.8516 13.6573 28.3663 15.8758 24.7412Z" fill="#CFF2E6"/>
<path d="M26.3575 30.739H16.4202C16.8414 28.0123 18.002 23.4782 20.277 21.5018C22.294 21.2356 24.3241 21.0874 26.3575 21.0579V30.739Z" fill="#CFF2E6"/>
<path d="M28.4117 33.841V33.3443C28.4117 33.2139 28.462 33.0889 28.5516 32.9968C28.6412 32.9046 28.7626 32.8528 28.8893 32.8528L41.3429 32.8528C41.497 33.4711 41.5843 33.841 41.5843 33.841L28.4117 33.841Z" fill="#CFF2E6"/>
<path d="M22.1412 34.1898H24.1235C24.3959 34.1898 24.6572 34.3011 24.8498 34.4993C25.0424 34.6976 25.1506 34.9664 25.1506 35.2467C25.1506 35.527 25.0424 35.7958 24.8498 35.994C24.6572 36.1922 24.3959 36.3036 24.1235 36.3036H22.1412C21.8688 36.3036 21.6076 36.1922 21.4149 35.994C21.2223 35.7958 21.1141 35.527 21.1141 35.2467C21.1141 34.9664 21.2223 34.6976 21.4149 34.4993C21.6076 34.3011 21.8688 34.1898 22.1412 34.1898Z" fill="#3F3F41"/>
<path d="M6.88359 48.0456H5.95916L5.83079 48.0456C5.46294 48.0135 5.11853 47.8466 4.8602 47.5753C4.71028 47.4147 4.59305 47.225 4.51544 47.0172C4.43783 46.8094 4.4014 46.5877 4.40828 46.3652C4.43621 44.5789 4.68295 42.8034 5.14265 41.0807C5.53295 39.7437 6.13892 38.5125 7.05304 37.8096C7.25887 37.6455 7.48513 37.5104 7.7258 37.408C7.79871 37.3762 7.86174 37.3244 7.90794 37.2582C7.95414 37.1921 7.98173 37.1141 7.98771 37.0328C8.12452 35.4447 8.36646 33.868 8.71183 32.3138C9.39258 29.1921 10.32 26.1328 11.485 23.1664C13.113 19.2665 15.3007 16.2227 18.5412 15.0918C22.4955 13.7231 37.6042 11.8736 42.3443 15.2239C46.3038 18.0247 48.1372 25.555 48.8767 29.7984C48.8883 29.9129 48.9332 30.021 49.0056 30.1087C49.078 30.1965 49.1745 30.2596 49.2824 30.2899C50.8744 30.6017 56.0305 31.7695 59.0142 32.4512L59.877 32.652L61.0427 32.9215C61.6025 33.0536 61.6693 33.0748 61.7052 33.0853C62.8505 33.3683 63.8937 33.9814 64.7123 34.8528C65.531 35.7242 66.0912 36.8177 66.3272 38.0052C66.3272 38.0052 66.5788 39.6592 66.6148 40.2669C66.6839 41.4249 66.6839 42.5861 66.6148 43.7441C66.5853 44.2514 66.4559 44.7473 66.2343 45.2015C66.0127 45.6558 65.7036 46.0589 65.3258 46.3863C64.4661 47.0847 63.4546 47.558 62.378 47.7655C61.1562 48.0348 59.9092 48.1641 58.6598 48.1513C58.3158 48.1513 58.0025 48.1513 57.7149 48.1513C57.6656 48.4842 57.5918 48.8128 57.4941 49.1342C57.0468 50.6397 56.1139 51.9431 54.8494 52.8293C53.5849 53.7154 52.0646 54.1312 50.5394 54.008C49.0142 53.8848 47.5754 53.23 46.4608 52.1517C45.3462 51.0734 44.6223 49.6361 44.4088 48.0773H20.1897C20.1415 48.4117 20.0695 48.742 19.974 49.0655C19.6217 50.2942 18.9459 51.3987 18.0214 52.2567C17.0969 53.1148 15.9598 53.6929 14.7358 53.9272C13.8442 54.0935 12.9292 54.0728 12.0456 53.8663C11.162 53.6598 10.328 53.2717 9.59372 52.7254C8.85945 52.1791 8.23997 51.4858 7.7725 50.687C7.30503 49.8883 6.99919 49.0007 6.87331 48.0773L6.88359 48.0456ZM64.3243 38.4808L64.2422 38.1373C64.0483 37.382 63.6549 36.6967 63.1055 36.1576C62.5562 35.6184 61.8724 35.2464 61.1301 35.0829L60.3648 34.9032V34.956C60.3648 34.9983 60.3648 35.0406 60.3648 35.0776C60.3648 35.1146 60.3648 35.2889 60.3648 35.3894V35.532C60.3597 35.6359 60.3597 35.74 60.3648 35.8438C60.3648 35.8808 60.3648 35.9125 60.3648 35.9495C60.3648 36.0869 60.4111 36.219 60.4419 36.3511L60.4727 36.4462C60.4727 36.4991 60.5086 36.5519 60.524 36.6048L60.5703 36.7422C60.5703 36.7897 60.6062 36.832 60.6268 36.8743L60.7551 37.1385C60.7755 37.1767 60.7978 37.2137 60.8219 37.2495C60.9859 37.5298 61.1864 37.7858 61.4176 38.0104L61.546 38.1214C61.639 38.2082 61.7367 38.2893 61.8387 38.3645L61.9979 38.4808C62.1006 38.5495 62.2085 38.6129 62.3164 38.6763L62.4807 38.7661C62.5731 38.8137 62.6707 38.856 62.7631 38.8929L62.9018 38.9564L62.9942 38.9933C63.1698 39.0615 63.3501 39.1162 63.5335 39.1572L63.7081 39.1942C63.8365 39.2206 63.97 39.247 64.1035 39.2629H64.4938C64.4511 38.9992 64.3945 38.7381 64.3243 38.4808ZM51.0644 51.8821C51.7196 51.8834 52.3677 51.7429 52.9666 51.4698C53.5656 51.1967 54.102 50.797 54.5412 50.2968C55.2969 49.4386 55.7223 48.3263 55.7378 47.1684V47.0204C55.7378 45.745 55.2454 44.5219 54.369 43.6201C53.4926 42.7182 52.3039 42.2116 51.0644 42.2116C49.825 42.2116 48.6363 42.7182 47.7599 43.6201C46.8835 44.5219 46.3911 45.745 46.3911 47.0204V47.1472C46.4087 48.4139 46.9107 49.6224 47.7884 50.5107C48.6661 51.399 49.8487 51.8956 51.0798 51.8927L51.0644 51.8821ZM20.0562 45.4298C20.0562 45.5408 20.1024 45.6517 20.1229 45.7627C20.1435 45.8737 20.1229 45.8684 20.1589 45.9212H26.3215V33.3443C26.3202 33.2135 26.2687 33.0885 26.1783 32.9964C26.0879 32.9044 25.9659 32.8528 25.8388 32.8528H14.6125C14.5467 32.853 14.4815 32.8392 14.4211 32.8122C14.3606 32.7852 14.3063 32.7457 14.2614 32.6961C14.2166 32.6464 14.1822 32.5878 14.1604 32.5238C14.1387 32.4599 14.13 32.392 14.1349 32.3244L14.1914 31.7061C14.4543 29.319 15.0082 26.9754 15.8399 24.7306C16.867 22.0461 18.5155 19.4462 21.0987 18.6588C23.4713 17.9507 35.4319 17.3958 38.6673 18.8543C41.9027 20.3128 44.2958 29.698 44.6964 31.5581L44.8556 32.2451C44.8718 32.3176 44.8719 32.3929 44.856 32.4655C44.84 32.5381 44.8085 32.606 44.7636 32.6643C44.7188 32.7227 44.6617 32.7699 44.5968 32.8025C44.5318 32.8351 44.4605 32.8523 44.3883 32.8528L28.8893 32.8528C28.7626 32.8528 28.6412 32.9046 28.5516 32.9968C28.462 33.0889 28.4117 33.2139 28.4117 33.3443L28.4117 45.9318L44.4448 45.9318C44.4448 45.8631 44.4756 45.7997 44.4859 45.7363C44.4961 45.6729 44.5218 45.5566 44.5423 45.4721L44.5423 45.4087C44.5423 45.303 44.5988 45.2026 44.6245 45.1022L44.7015 44.8485C44.7426 44.727 44.794 44.6054 44.8402 44.4839C44.8864 44.3623 44.8967 44.3306 44.9326 44.2514C44.9686 44.1721 45.0507 44.003 45.1175 43.8762L45.21 43.6859C45.2973 43.5274 45.3948 43.3742 45.4924 43.2209L45.5386 43.1522C45.6549 42.9782 45.7801 42.8106 45.9135 42.6502C45.9495 42.6026 45.9905 42.5604 46.0265 42.5181C46.0624 42.4758 46.2216 42.2908 46.3244 42.1852L46.4938 42.0266C46.5863 41.9368 46.6787 41.8469 46.7814 41.7624C46.8841 41.6778 46.9098 41.6567 46.9765 41.6039C47.0698 41.524 47.1675 41.4499 47.2693 41.3819L47.485 41.2339L47.7931 41.0437L48.0242 40.9169C48.1269 40.8587 48.2348 40.8059 48.3426 40.7583L48.5891 40.6527L48.9281 40.5205L49.1746 40.4413L49.5443 40.3409L49.7857 40.2828C49.9243 40.2563 50.0681 40.2352 50.2068 40.2193C50.3455 40.2035 50.3454 40.1929 50.4173 40.1876C50.633 40.1876 50.8436 40.1559 51.0644 40.1559C51.2853 40.1559 51.501 40.1559 51.7166 40.1876L51.922 40.2193C52.0658 40.2193 52.2096 40.2563 52.3483 40.2828L52.5897 40.3462C52.7129 40.3726 52.8413 40.4043 52.9594 40.4413L53.2162 40.5258L53.55 40.6527L53.8068 40.7689L54.1098 40.9169L54.3666 41.0596L54.6388 41.2287L54.8955 41.4031L55.1369 41.588L55.3885 41.7888L55.5888 41.9738L55.8456 42.2221L55.9894 42.386C56.0838 42.4849 56.1729 42.589 56.2564 42.6977L56.3027 42.7559C56.765 43.3455 57.1294 44.0097 57.3811 44.7217C57.3979 44.7556 57.4116 44.7909 57.4222 44.8274C57.4684 44.9701 57.5146 45.1233 57.5506 45.2713C57.5506 45.3294 57.5865 45.3875 57.5968 45.4456C57.6316 45.5814 57.659 45.719 57.679 45.8578C57.6922 45.9064 57.7025 45.9559 57.7098 46.0058C59.5226 46.0798 62.0596 45.9424 63.4924 45.118C63.6631 45.0208 63.8247 44.9076 63.9751 44.7798C64.1485 44.6379 64.2901 44.4591 64.3902 44.2558C64.4904 44.0524 64.5467 43.8292 64.5554 43.6014C64.6017 42.814 64.6171 42.0953 64.6119 41.4348H63.8827C63.7492 41.4348 63.6208 41.3925 63.4872 41.3661H63.3845C63.3024 41.3661 63.2151 41.3661 63.1329 41.3185C63.0507 41.2709 62.871 41.2498 62.7426 41.2128L62.4037 41.1124C62.2753 41.0701 62.1571 41.012 62.0339 40.9645L61.7103 40.8323L61.356 40.6368L61.0582 40.473L60.7192 40.2352C60.6319 40.1718 60.5394 40.1136 60.4573 40.0449C60.3751 39.9762 60.2313 39.8441 60.1183 39.7385C60.0054 39.6328 59.9746 39.6169 59.9078 39.5482C59.7331 39.373 59.5701 39.1858 59.4199 38.9881C59.2805 38.8071 59.1535 38.6164 59.0399 38.4173C59.0027 38.3575 58.9684 38.2958 58.9372 38.2324C58.8616 38.0971 58.793 37.9577 58.7317 37.8149L58.6393 37.593C58.5837 37.4513 58.5357 37.3067 58.4955 37.1596C58.4955 37.0909 58.4493 37.0222 58.4339 36.9535C58.3818 36.7592 58.3423 36.5615 58.3158 36.3617C58.3138 36.3424 58.3138 36.3229 58.3158 36.3036C58.3158 36.1873 58.3158 36.0658 58.3158 35.9442C58.3158 35.8227 58.3158 35.7381 58.3158 35.6324C58.3158 35.5267 58.3158 35.5003 58.3158 35.4316C58.3158 35.2731 58.3158 35.1093 58.3466 34.9455L58.3774 34.7129C58.3774 34.6442 58.3774 34.5808 58.3774 34.5121C55.0496 33.7512 50.3454 32.689 48.9075 32.3984C48.3863 32.2953 47.9089 32.0286 47.5411 31.6349C47.1732 31.2413 46.9329 30.74 46.8533 30.2C46.4219 27.7428 44.7477 19.5202 41.2042 16.9889C37.4758 14.3467 23.384 15.6784 19.2191 17.121C18.6853 17.3094 18.1777 17.5687 17.7092 17.8926C14.1144 20.334 12.2297 26.4586 10.7249 32.8422C10.4052 34.3049 10.1805 35.7878 10.0522 37.2812C10.0073 37.7446 9.83993 38.1866 9.56836 38.5592C9.29679 38.9318 8.93133 39.2208 8.51155 39.395C7.35092 39.8653 6.63706 43.0412 6.50354 45.9741H6.93494C6.93494 45.9054 6.96576 45.842 6.97603 45.7786C6.9863 45.7152 7.01197 45.5989 7.03251 45.5143C7.0303 45.4933 7.0303 45.472 7.03251 45.4509C7.05819 45.3452 7.08385 45.2396 7.11467 45.1392C7.14548 45.0388 7.1609 44.9753 7.18658 44.8908C7.21225 44.8062 7.27902 44.6424 7.32524 44.5209L7.41768 44.2989C7.47417 44.1668 7.54092 44.04 7.60255 43.9132L7.69498 43.7282C7.78742 43.5626 7.885 43.4041 7.98771 43.2526C7.9966 43.2314 8.00875 43.2118 8.02367 43.1945C8.14178 43.0201 8.26502 42.851 8.39855 42.666L8.5064 42.5445C8.60398 42.4282 8.70668 42.312 8.81453 42.2063L8.97372 42.0478C9.0713 41.9579 9.16374 41.8681 9.26645 41.7835C9.36916 41.699 9.39484 41.6779 9.45646 41.625C9.51809 41.5722 9.65162 41.4718 9.75433 41.4031L9.97002 41.2551L10.2782 41.0649L10.5093 40.938C10.612 40.8799 10.725 40.8271 10.8328 40.7795L11.0742 40.6738L11.4182 40.5417C11.5004 40.5153 11.5774 40.4836 11.6596 40.4624L12.0345 40.362L12.2707 40.3039C12.4094 40.2775 12.5532 40.2563 12.697 40.2405L12.9024 40.2088C13.1181 40.1876 13.3338 40.1771 13.5495 40.1771C13.7652 40.1771 13.9809 40.1876 14.1966 40.2088C14.2685 40.2088 14.3352 40.2088 14.4071 40.2405C14.479 40.2722 14.6896 40.2775 14.8282 40.3039L15.0696 40.362L15.4394 40.4624L15.691 40.547C15.804 40.584 15.917 40.6262 16.0248 40.6738C16.1109 40.7053 16.1949 40.7424 16.2764 40.7848C16.3816 40.8305 16.4844 40.8817 16.5846 40.938L16.8311 41.0701C16.9287 41.1283 17.0262 41.1864 17.1187 41.2498L17.3549 41.4083C17.4473 41.4718 17.5346 41.5405 17.6219 41.6092L17.8479 41.7941C17.9301 41.8628 18.0071 41.9368 18.0842 42.0108L18.2998 42.2169C18.3717 42.2908 18.4385 42.3701 18.5053 42.4494C18.572 42.5286 18.6491 42.6026 18.7158 42.6872C18.7826 42.7717 18.798 42.7929 18.8391 42.8457C18.9933 43.0512 19.1373 43.2646 19.2705 43.4851L19.3937 43.6859C19.4502 43.7969 19.5067 43.9079 19.558 44.0189C19.6094 44.1298 19.6351 44.1721 19.671 44.2514C19.707 44.3306 19.7635 44.4733 19.8045 44.5843C19.8456 44.6953 19.8713 44.7534 19.9021 44.8379C19.9329 44.9225 19.974 45.0652 20.0048 45.1762L20.0562 45.4298ZM16.4048 30.7285H26.3575V20.1596C24.7964 20.1989 23.2415 20.3757 21.7098 20.688C21.1818 20.8601 20.694 21.1425 20.277 21.5177C18.002 23.4782 16.8414 28.0123 16.4202 30.739L16.4048 30.7285ZM28.4117 30.7496H42.3854C41.3583 26.6647 39.453 21.5018 37.8764 20.7832C36.4693 20.149 32.2274 19.9905 28.4117 20.0909V30.7496ZM18.2125 47.1578V47.0151C18.2125 45.7397 17.7202 44.5166 16.8438 43.6148C15.9673 42.7129 14.7786 42.2063 13.5392 42.2063C12.2998 42.2063 11.1111 42.7129 10.2347 43.6148C9.35827 44.5166 8.86589 45.7397 8.86589 47.0151V47.142C8.87156 48.1127 9.16287 49.0588 9.70148 49.8557C10.2401 50.6527 11.0007 51.263 11.8831 51.6063C12.7655 51.9496 13.7283 52.0097 14.6446 51.7788C15.5608 51.5478 16.3876 51.0367 17.016 50.3126C17.3418 49.9374 17.6102 49.5133 17.812 49.0549C18.0736 48.4549 18.2101 47.805 18.2125 47.1472V47.1578Z" fill="#3F3F41"/>
<path d="M32.7512 36.3036H30.7689C30.4965 36.3036 30.2352 36.1922 30.0426 35.994C29.85 35.7958 29.7418 35.527 29.7418 35.2467C29.7418 34.9664 29.85 34.6976 30.0426 34.4993C30.2352 34.3011 30.4965 34.1898 30.7689 34.1898H32.7512C33.0236 34.1898 33.2848 34.3011 33.4775 34.4993C33.6701 34.6976 33.7783 34.9664 33.7783 35.2467C33.7783 35.527 33.6701 35.7958 33.4775 35.994C33.2848 36.1922 33.0236 36.3036 32.7512 36.3036Z" fill="#3F3F41"/>
</svg>
