<svg width="70" height="70" viewBox="0 0 70 70" fill="none" xmlns="http://www.w3.org/2000/svg">
<path d="M27.8027 13.9216C28.3623 13.3589 29.1203 13.0225 29.9246 12.98H44.8169V11.7693C44.7652 11.383 44.6156 11.0151 44.3816 10.6987C44.1476 10.3822 43.8366 10.127 43.4762 9.95596H29.775C27.0769 9.95596 25.5035 11.6079 24.5173 13.7225V13.9216H27.8027Z" fill="#258CF2"/>
<path d="M26.8387 15.6865H24.1461C24.0361 15.6849 23.9266 15.6723 23.8192 15.6488C23.7694 15.8156 23.7195 15.9824 23.6752 16.1492H26.8221V15.9017C26.8223 15.8297 26.8279 15.7578 26.8387 15.6865Z" fill="#258CF2"/>
<path d="M50.9722 15.9179C51.4039 15.9167 51.8192 16.0788 52.1301 16.3699C51.6748 14.6791 50.8384 13.1077 49.6813 11.7693C50.1099 13.1299 50.4303 14.5204 50.6397 15.9286L50.9722 15.9179Z" fill="#258CF2"/>
<path d="M50.8558 19.7544V17.9088H48.9389V18.393C48.9389 18.5357 48.8805 18.6726 48.7766 18.7735C48.6727 18.8744 48.5318 18.9311 48.3848 18.9311H27.3318C27.1848 18.9311 27.0439 18.8744 26.94 18.7735C26.8361 18.6726 26.7777 18.5357 26.7777 18.393V17.9088H23.2153C23.0879 18.5491 22.9771 19.1732 22.8774 19.7544H50.8558Z" fill="#258CF2"/>
<path d="M52.6398 20.2225C52.6082 20.4575 52.5251 20.6832 52.396 20.8843H53.083C52.9778 20.1095 52.8448 19.3024 52.673 18.4953V19.8835C52.6735 19.9973 52.6623 20.1108 52.6398 20.2225Z" fill="#258CF2"/>
<path d="M24.0353 58.3453H46.7117L48.9333 24.9092H21.8081L24.0353 58.3453Z" fill="#258CF2"/>
<path d="M48.4901 58.6521C48.4701 59.047 48.2932 59.4189 47.9967 59.6899C47.7002 59.9608 47.3071 60.1095 46.9001 60.1049H24.1516L24.3234 62.7038C24.3386 62.8751 24.4192 63.0347 24.5494 63.1512C24.6796 63.2677 24.85 63.3326 25.027 63.3333H50.1356C50.3126 63.3326 50.483 63.2677 50.6132 63.1512C50.7434 63.0347 50.824 62.8751 50.8392 62.7038L53.3379 24.9092H50.7339L48.4901 58.6521Z" fill="#258CF2"/>
<path d="M46.6286 11.7693V13.0876C47.4702 13.3704 48.1746 13.9453 48.6065 14.7018C48.3142 13.13 47.8133 11.6017 47.1161 10.155C46.7763 10.0596 46.4273 9.99835 46.0746 9.9721C46.4243 10.511 46.6159 11.1324 46.6286 11.7693Z" fill="#258CF2"/>
<path d="M20.7942 21.7291C20.7916 21.7542 20.7916 21.7794 20.7942 21.8044V23.989C20.7919 24.0141 20.7919 24.0393 20.7942 24.0644C20.8084 24.2433 20.8771 24.414 20.9916 24.5549C21.106 24.6957 21.2611 24.8003 21.4369 24.8554C21.5328 24.8897 21.6339 24.9079 21.7361 24.9092H48.9057L49.1328 21.5193H20.8386C20.8127 21.5866 20.7977 21.6574 20.7942 21.7291Z" fill="#61B1F2"/>
<path d="M55 23.989V21.8044C54.9997 21.5981 54.9279 21.3978 54.7963 21.2358C54.6647 21.0738 54.4808 20.9595 54.2742 20.9112C54.2016 20.894 54.1273 20.885 54.0526 20.8843H52.3905C52.2405 21.1195 52.0307 21.3133 51.7814 21.4471C51.532 21.5809 51.2515 21.6502 50.9666 21.6484L50.7505 24.9092H54.0747C54.1727 24.9066 54.2697 24.8903 54.3628 24.8607C54.5497 24.7987 54.7118 24.6811 54.8262 24.5247C54.9405 24.3683 55.0013 24.1809 55 23.989Z" fill="#61B1F2"/>
<path d="M46.6286 13.1037V14.2713C46.6293 14.4565 46.5925 14.6399 46.5202 14.8113C46.4479 14.9826 46.3416 15.1384 46.2073 15.2698C46.0731 15.4012 45.9135 15.5056 45.7376 15.5771C45.5618 15.6486 45.3732 15.6858 45.1826 15.6865H26.8387C26.8334 15.7581 26.8334 15.8301 26.8387 15.9017V16.1492H48.8724C48.8004 15.6596 48.7117 15.1807 48.6231 14.7233C48.1882 13.9618 47.4773 13.3845 46.6286 13.1037Z" fill="#61B1F2"/>
<path d="M27.8027 13.9216H44.8169V12.98H29.9246C29.1203 13.0225 28.3623 13.3589 27.8027 13.9216Z" fill="#61B1F2"/>
<path d="M27.3595 18.915H48.4125C48.5595 18.915 48.7004 18.8583 48.8043 18.7574C48.9082 18.6565 48.9666 18.5196 48.9666 18.3769V17.8926H26.8221V18.3769C26.822 18.5168 26.8781 18.6513 26.9784 18.7518C27.0788 18.8522 27.2154 18.9108 27.3595 18.915Z" fill="#61B1F2"/>
<path d="M42.6617 8.00274H26.7113C25.6799 8.04249 24.7022 8.4596 23.9744 9.17037C23.5924 9.50568 23.283 9.91152 23.0642 10.3642C22.8454 10.8169 22.7217 11.3073 22.7001 11.807V14.2983C22.6998 14.6138 22.809 14.9203 23.01 15.1683C23.211 15.4162 23.4922 15.5912 23.8082 15.665C23.9155 15.6884 24.025 15.7011 24.135 15.7026H45.1881C45.3787 15.7019 45.5673 15.6648 45.7432 15.5933C45.919 15.5218 46.0786 15.4173 46.2129 15.2859C46.3472 15.1545 46.4535 14.9987 46.5258 14.8274C46.598 14.6561 46.6349 14.4726 46.6341 14.2875V11.7693C46.6204 11.1342 46.4289 10.5148 46.0801 9.97748C45.7212 9.40089 45.2216 8.91907 44.6254 8.57464C44.0291 8.23021 43.3547 8.03379 42.6617 8.00274ZM44.8169 12.9961L44.8169 13.9216L24.5284 13.9216V11.7693C24.5284 10.833 25.7196 9.73535 26.7445 9.73535H42.695C42.9807 9.74465 43.26 9.8203 43.5094 9.95596C43.8698 10.127 44.1809 10.3822 44.4149 10.6987C44.6488 11.0151 44.7984 11.383 44.8501 11.7693L44.8169 12.9961ZM52.6564 17.6505V17.5698C52.6493 17.1438 52.4719 16.7372 52.1617 16.436C51.8515 16.1348 51.4329 15.9625 50.9943 15.9555H50.6619C50.4466 14.5377 50.1187 13.1381 49.6813 11.7693C49.3943 10.8581 49.0234 9.97391 48.5732 9.12732C47.9939 7.99136 47.1634 6.99369 46.141 6.20556C45.0604 5.41186 43.7395 4.98803 42.3847 5.00026H26.5395C23.9079 5.00026 21.9078 6.35622 20.5893 9.03047C19.5421 11.1505 19.1044 13.6795 18.761 15.7134C18.761 15.7834 18.761 15.8587 18.7166 15.9286H18.3288C17.888 15.9286 17.4652 16.0987 17.1535 16.4014C16.8418 16.7042 16.6667 17.1148 16.6667 17.5429V20.0019C16.6636 20.3313 16.7644 20.6539 16.9556 20.9261C17.1467 21.1983 17.4191 21.4071 17.736 21.5246L20.207 58.6521C20.2338 59.0474 20.415 59.418 20.7136 59.688C21.0122 59.958 21.4057 60.1071 21.8137 60.1049H46.9222C47.3293 60.1095 47.7224 59.9608 48.0189 59.6899C48.3154 59.4189 48.4922 59.047 48.5123 58.6521L50.9722 21.6484C51.3814 21.6511 51.7772 21.5071 52.0839 21.244C52.3905 20.9809 52.5865 20.6172 52.6343 20.2225C52.6568 20.1108 52.6679 19.9973 52.6675 19.8835V17.785C52.6668 17.7346 52.6631 17.6843 52.6564 17.6343V17.6505ZM50.8614 19.7705H18.4729V17.9249H50.8614V19.7705ZM20.5615 16.004C20.894 14.0723 21.3095 11.6993 22.2236 9.78916C23.243 7.71756 24.6115 6.75978 26.534 6.75978H42.3958C44.3183 6.75978 45.8197 7.79827 46.9776 9.93982C47.0219 10.0205 47.0607 10.1066 47.0995 10.1927C47.7966 11.6393 48.2976 13.1677 48.5898 14.7395C48.6785 15.1968 48.7671 15.6757 48.8392 16.1654H20.5338C20.5449 16.0739 20.556 16.0416 20.5615 15.9878V16.004ZM48.9057 24.9092L46.6895 58.3454H21.9854L19.5421 21.5193H49.155L48.9057 24.9092Z" fill="#3F3F41"/>
</svg>
