<svg width="70" height="70" viewBox="0 0 70 70" fill="none" xmlns="http://www.w3.org/2000/svg">
<path d="M36.44 18.3977C36.4472 18.3658 36.4575 18.3347 36.4706 18.3047H36.3584C36.231 18.3047 36.1087 18.3047 35.9812 18.3047H35.8436C36.003 18.4583 36.1734 18.5998 36.3533 18.7282L36.44 18.3977Z" fill="#99D3BF"/>
<path d="M34.8292 11.958C34.4113 11.8754 33.6823 11.7308 32.7903 11.5862C32.7146 11.8896 32.6634 12.1988 32.6374 12.5106C32.6431 13.0909 32.7808 13.6622 33.0398 14.1798C33.2989 14.6975 33.6722 15.1477 34.1309 15.4954C34.6285 15.8476 35.1925 16.0919 35.7875 16.2133H35.8385C35.9853 16.2355 36.1335 16.2476 36.282 16.2494H36.4757C36.6258 16.2478 36.7757 16.2357 36.9242 16.2133H36.9752C37.57 16.0909 38.1337 15.8467 38.6319 15.4954C39.1034 15.1366 39.4844 14.6699 39.7437 14.1333C40.003 13.5967 40.1333 13.0055 40.1239 12.4081C40.1144 11.8107 39.9655 11.2241 39.6894 10.6962C39.4132 10.1683 39.0177 9.71411 38.535 9.37079C37.7631 9.48593 37.0275 9.77907 36.385 10.2276C35.7425 10.6762 35.2103 11.2682 34.8292 11.958Z" fill="#99D3BF"/>
<path d="M30.629 12.4279C30.6302 12.0516 30.6677 11.6763 30.7411 11.3073C26.4288 10.7909 20.5464 10.7289 20.577 14.1424V14.1837C21.6933 14.4626 23.4774 14.6227 26.3268 14.3851C28.0548 14.2406 29.6707 13.9772 30.7054 13.7964C30.6138 13.3465 30.588 12.8854 30.629 12.4279Z" fill="#99D3BF"/>
<path d="M31.5771 15.6865C29.9032 16.0128 28.2137 16.2507 26.5155 16.3992C25.547 16.487 24.6447 16.5231 23.8139 16.5231C23.2582 16.5231 22.7383 16.4973 22.2439 16.4611C24.7059 17.6024 29.3292 17.1893 32.3468 16.7452V16.6522C32.0567 16.3593 31.7986 16.0355 31.5771 15.6865Z" fill="#99D3BF"/>
<path d="M38.4891 17.8968C38.2192 18.0045 37.9414 18.0908 37.6583 18.155C37.9548 18.2906 38.2638 18.3962 38.5809 18.47L38.4891 17.8968Z" fill="#99D3BF"/>
<path d="M55.3971 15.1185C54.2349 16.0687 52.2265 16.5438 49.3975 16.5438C48.5649 16.5438 47.6627 16.5024 46.6908 16.4198C44.85 16.2549 43.0192 15.9912 41.206 15.6297C40.9565 16.0215 40.6622 16.382 40.3293 16.7038L40.5994 18.4596C40.9903 18.3623 41.3685 18.2185 41.726 18.031C41.8072 17.9905 41.8964 17.9688 41.9869 17.9674C42.0775 17.966 42.1672 17.9851 42.2497 18.0231C42.3321 18.0612 42.4051 18.1173 42.4635 18.1874C42.522 18.2575 42.5643 18.3399 42.5874 18.4287C43.2331 17.8716 43.7338 17.1622 44.0453 16.363C46.8386 16.8794 58.0732 18.7901 58.0834 14.1424C58.0823 13.6576 57.94 13.1839 57.6743 12.7806C57.4086 12.3773 57.0314 12.0624 56.5899 11.8754C56.6275 12.0745 56.6446 12.2769 56.6408 12.4796C56.6492 12.9869 56.5412 13.4893 56.3254 13.9473C56.1096 14.4052 55.7918 14.8061 55.3971 15.1185Z" fill="#99D3BF"/>
<path d="M43.7496 11.9942C43.565 11.6635 43.3463 11.3536 43.0971 11.0698L42.3784 11.1989C42.6044 12.0403 42.6461 12.9215 42.5008 13.781C43.5202 13.972 45.1463 14.2251 46.8743 14.3697C51.7678 14.7828 53.5009 14.0082 54.1432 13.5073C54.3048 13.3903 54.4358 13.235 54.5246 13.055C54.6135 12.8749 54.6575 12.6756 54.6529 12.4744C54.6615 12.266 54.6196 12.0586 54.5307 11.8705C54.4418 11.6823 54.3088 11.5191 54.1432 11.3951C54.0187 11.2969 53.8856 11.2105 53.7456 11.1369C50.0143 10.7806 45.08 11.7153 43.7496 11.9942Z" fill="#99D3BF"/>
<path d="M30.0887 30.9155C35.8334 30.838 41.9706 30.8639 47.384 30.9155C50.5852 30.9413 53.404 30.9568 55.6316 30.9413V23.1383H43.8516C43.7409 23.1387 43.6322 23.1087 43.537 23.0514C43.4418 22.9941 43.3638 22.9117 43.3113 22.813H40.105C39.8674 22.8093 39.6385 22.7216 39.458 22.565C39.2774 22.4085 39.1565 22.193 39.1161 21.9557L38.6064 18.47C38.2893 18.3962 37.9802 18.2906 37.6838 18.155C37.4343 18.2167 37.1803 18.2582 36.9243 18.2789C36.7968 18.2789 36.6745 18.2789 36.5522 18.2789H36.4961C36.483 18.3088 36.4728 18.34 36.4655 18.3719L36.3839 18.6765L35.3645 22.6219C35.3289 22.7592 35.2487 22.8803 35.1367 22.9655C35.0248 23.0508 34.8877 23.0953 34.7477 23.0919C17.7225 22.5031 15.286 34.2825 15.0719 40.9391H21.3212C21.2652 37.4946 21.989 34.9952 23.5131 33.3271C25.0372 31.6591 27.1322 30.962 30.0887 30.9155Z" fill="#99D3BF"/>
<path d="M59.3985 23.1383H57.6399V31.9173C57.6399 32.1913 57.5325 32.454 57.3413 32.6477C57.1501 32.8413 56.8908 32.9502 56.6204 32.9502C54.2502 32.9502 51.049 32.9502 47.3483 32.9502C41.94 32.9243 35.8181 32.8882 30.0938 32.9502C27.7184 32.9863 26.0159 33.575 24.9607 34.7421C23.6711 36.1519 23.141 38.5016 23.3398 41.9254C23.3485 42.0632 23.3289 42.2012 23.2824 42.331C23.2359 42.4607 23.1635 42.5793 23.0696 42.6794C22.9746 42.7776 22.8612 42.8556 22.736 42.9088C22.6108 42.962 22.4764 42.9893 22.3407 42.9892H15.0515C15.0744 43.1329 15.1469 43.2637 15.2562 43.3583C15.3654 43.4528 15.5042 43.505 15.6479 43.5056H24.7466C24.8289 43.5057 24.9104 43.489 24.9863 43.4566C25.0621 43.4243 25.1308 43.3768 25.1883 43.3172C25.2457 43.2575 25.2909 43.1868 25.321 43.1092C25.351 43.0316 25.3655 42.9486 25.3634 42.8653C25.1493 36.312 27.6929 33.4459 33.2083 33.3685C42.6486 33.229 53.3836 33.4149 59.3883 33.3685C59.551 33.3671 59.7066 33.3007 59.8211 33.1836C59.9357 33.0666 60 32.9084 60 32.7436V23.758C59.9975 23.5963 59.9336 23.4417 59.8216 23.3263C59.7096 23.2109 59.5581 23.1436 59.3985 23.1383Z" fill="#99D3BF"/>
<path d="M41.726 18.031C41.3685 18.2185 40.9903 18.3623 40.5994 18.4596L40.9614 20.7887H42.985L42.6333 18.501C42.6333 18.4751 42.6333 18.4493 42.6333 18.4287C42.6121 18.3334 42.569 18.2446 42.5075 18.1694C42.446 18.0943 42.3679 18.0349 42.2794 17.9961C42.191 17.9574 42.0948 17.9403 41.9986 17.9464C41.9024 17.9524 41.809 17.9814 41.726 18.031Z" fill="#99D3BF"/>
<path d="M13.9607 57.7793C13.9545 58.5979 14.1286 59.4077 14.4704 60.1496C15.0762 60.4581 15.7447 60.619 16.4227 60.6195C17.598 60.6168 18.7244 60.1426 19.5555 59.3006C20.3866 58.4586 20.8547 57.3175 20.8574 56.1267C20.8574 54.6705 19.2976 52.6874 17.9519 51.0194C16.3208 53.0902 13.9607 55.6207 13.9607 57.7793Z" fill="#99D3BF"/>
<path d="M19.1752 49.2998L19.2925 49.4444C20.9797 51.51 22.8912 53.8545 22.8912 56.1267C22.8894 57.799 22.2536 59.4066 21.1152 60.6175C19.9769 61.8284 18.423 62.5501 16.7744 62.6335C17.6095 63.1035 18.5513 63.3446 19.5065 63.3329C20.4618 63.3213 21.3975 63.0572 22.2212 62.567C23.0449 62.0767 23.7281 61.3772 24.2032 60.5375C24.6783 59.6978 24.9289 58.7471 24.9302 57.7793C24.9302 54.7169 20.261 50.818 19.4403 48.7111C19.3703 48.9153 19.2816 49.1124 19.1752 49.2998Z" fill="#99D3BF"/>
<path d="M23.1053 42.6845C23.1992 42.5845 23.2716 42.4659 23.3181 42.3361C23.3646 42.2064 23.3842 42.0683 23.3755 41.9306C23.1767 38.5068 23.7068 36.1571 24.9965 34.7473C26.072 33.5802 27.7541 32.9915 30.1295 32.9553C35.8538 32.8779 41.9758 32.914 47.3841 32.9553C51.0847 32.9553 54.2859 32.9915 56.6562 32.9553C56.9265 32.9553 57.1858 32.8465 57.377 32.6528C57.5682 32.4591 57.6756 32.1964 57.6756 31.9225V21.806C57.6756 21.5321 57.5682 21.2694 57.377 21.0757C57.1858 20.882 56.9265 20.7732 56.6562 20.7732H40.9461L40.5842 18.4442L40.314 16.6884C40.647 16.3665 40.9413 16.006 41.1908 15.6142C43.0039 15.9757 44.8348 16.2394 46.6755 16.4043C47.6508 16.487 48.5531 16.5283 49.3822 16.5283C52.2113 16.5283 54.2196 16.0532 55.3818 15.103C55.7745 14.7922 56.091 14.3937 56.3067 13.9387C56.5224 13.4837 56.6316 12.9843 56.6256 12.4796C56.6293 12.2769 56.6122 12.0745 56.5746 11.8754C56.4446 11.0567 56.0129 10.3185 55.3665 9.80974C53.8373 8.57552 50.9216 8.14174 46.65 8.52388C44.8284 8.70937 43.018 8.99381 41.2264 9.37596C40.7145 8.55497 40.0078 7.87694 39.1708 7.40375C38.3338 6.93055 37.3931 6.67726 36.4346 6.66699C35.4762 6.65672 34.5304 6.88979 33.6837 7.34495C32.837 7.8001 32.1163 8.46284 31.5873 9.27268C29.9168 8.94229 28.2308 8.69754 26.5358 8.53937C22.2694 8.15206 19.3384 8.59101 17.8194 9.82523C17.4197 10.1387 17.0977 10.5423 16.8791 11.004C16.6606 11.4657 16.5514 11.9728 16.5603 12.4848C16.5528 12.989 16.6612 13.4882 16.8771 13.9426C17.093 14.3971 17.4104 14.7943 17.8041 15.103C18.742 15.8673 20.2355 16.3217 22.2439 16.4715C22.7536 16.5076 23.2634 16.5334 23.8139 16.5334C24.6447 16.5334 25.547 16.4973 26.5155 16.4095C28.2137 16.261 29.9033 16.0231 31.5771 15.6968C31.805 16.0469 32.07 16.3707 32.3672 16.6625V16.7555L31.3478 20.7628C24.762 20.5976 19.6748 22.2604 16.2341 25.7101C12.5946 29.3508 10.8819 34.8454 11.1367 42.0287C11.1511 42.2927 11.2648 42.541 11.4545 42.7226C11.6441 42.9041 11.8953 43.0051 12.1562 43.0047H22.3968C22.6654 42.9968 22.92 42.8817 23.1053 42.6845ZM46.8743 10.5689C50.9522 10.2022 52.8688 10.6876 53.7405 11.1524C53.8805 11.226 54.0136 11.3124 54.1381 11.4106C54.3037 11.5346 54.4367 11.6978 54.5256 11.886C54.6145 12.0741 54.6564 12.2815 54.6478 12.4899C54.6524 12.6911 54.6083 12.8904 54.5195 13.0705C54.4307 13.2505 54.2997 13.4057 54.1381 13.5227C53.5213 14.0392 51.7627 14.7983 46.8692 14.3852C45.1412 14.2406 43.5304 13.9875 42.4957 13.7964C42.641 12.937 42.5993 12.0558 42.3734 11.2144L43.0921 11.0853C44.1014 10.9252 45.4419 10.6928 46.859 10.5689L46.8743 10.5689ZM36.3585 8.68913C37.1429 8.68912 37.9074 8.93888 38.5441 9.4031C39.1807 9.86731 39.6573 10.5225 39.9063 11.276C40.1554 12.0296 40.1644 12.8434 39.932 13.6024C39.6997 14.3614 39.2377 15.0272 38.6115 15.5058C38.1134 15.857 37.5496 16.1013 36.9549 16.2236H36.9039C36.7554 16.2461 36.6055 16.2582 36.4553 16.2597H36.2616C36.1132 16.258 35.965 16.2459 35.8182 16.2236H35.7672C35.1721 16.1022 34.6082 15.8579 34.1105 15.5058C33.6519 15.158 33.2785 14.7078 33.0195 14.1902C32.7604 13.6725 32.6227 13.1013 32.617 12.5209C32.643 12.2091 32.6942 11.8999 32.7699 11.5965C32.8209 11.3796 32.8872 11.1472 32.9636 10.8994C33.2618 10.2408 33.74 9.68255 34.3417 9.29082C34.9434 8.8991 35.6433 8.69029 36.3585 8.68913ZM26.3116 14.3697C23.4621 14.6072 21.6781 14.4471 20.5618 14.1683C20.0101 14.062 19.4881 13.8347 19.0325 13.5021C18.8706 13.3854 18.7394 13.2302 18.6505 13.0501C18.5616 12.87 18.5178 12.6706 18.5228 12.4693C18.5138 12.2601 18.5555 12.0518 18.6444 11.8627C18.7333 11.6737 18.8665 11.5096 19.0325 11.3848C19.5423 10.9872 20.7401 10.4139 23.666 10.4139C24.5429 10.415 25.4191 10.4616 26.2912 10.5534C28.0549 10.7083 29.6962 10.9768 30.7259 11.1731L30.6953 11.2918C30.6219 11.6608 30.5844 12.0361 30.5832 12.4125C30.5422 12.87 30.568 13.3311 30.6596 13.781C29.6707 13.9772 28.0548 14.2406 26.3268 14.3851L26.3116 14.3697ZM15.0413 40.9494H13.0839C13.0228 34.8402 14.5367 30.1925 17.6053 27.1354C20.7759 23.9491 25.6234 22.4877 32.0257 22.8027C32.2552 22.8109 32.4807 22.7405 32.6657 22.6027C32.8508 22.4649 32.9845 22.2679 33.0452 22.0435L34.1207 17.8348C34.6641 18.0678 35.2404 18.2124 35.8284 18.2634H35.966C36.0934 18.2634 36.2157 18.2634 36.3432 18.2634H36.5114C36.6337 18.2634 36.7561 18.2634 36.8835 18.2634C37.1395 18.2427 37.3935 18.2013 37.643 18.1395C37.9262 18.0753 38.2039 17.989 38.4739 17.8813L38.5656 18.4545L39.0754 21.9403C39.1157 22.1775 39.2366 22.393 39.4172 22.5496C39.5978 22.7061 39.8266 22.7938 40.0643 22.7975H55.5908V30.9103C53.3633 30.9103 50.5444 30.9103 47.3433 30.8845C41.9299 30.8484 35.7927 30.8225 30.0479 30.8845C27.0915 30.931 24.9506 31.7263 23.4723 33.322C21.9941 34.9177 21.2244 37.4894 21.2805 40.9339L15.0413 40.9494ZM22.8759 56.1113C22.8759 53.839 20.9644 51.4997 19.2772 49.4289L19.16 49.2843C18.4664 48.5147 17.8642 47.6654 17.3657 46.7539C17.2832 46.568 17.1483 46.411 16.9779 46.3026C16.8076 46.1943 16.6094 46.1394 16.4083 46.1449C16.2072 46.1505 16.0122 46.2161 15.8479 46.3337C15.6836 46.4512 15.5572 46.6154 15.4848 46.8055C15.2707 47.4665 14.3685 48.5665 13.4917 49.6354C11.8555 51.634 10 53.901 10 56.1113C9.99865 56.9724 10.1655 57.8252 10.4909 58.6208C10.8163 59.4163 11.2939 60.1387 11.8961 60.7464C12.4983 61.3541 13.2133 61.8351 13.9998 62.1616C14.7863 62.4881 15.6288 62.6538 16.4788 62.649H16.7999C18.4466 62.5591 19.9964 61.8324 21.1298 60.6189C22.2631 59.4053 22.8936 57.7974 22.8912 56.1267L22.8759 56.1113ZM16.4278 60.604C15.7498 60.6036 15.0813 60.4426 14.4755 60.1341C13.733 59.7648 13.1074 59.1922 12.6696 58.4812C12.2318 57.7702 11.9992 56.9492 11.9982 56.1113C11.9982 54.6343 13.6803 52.579 15.0566 50.9471C15.5663 50.3016 16.0761 49.6974 16.489 49.1345C16.8611 49.6509 17.2943 50.1673 17.7531 50.7354C17.8245 50.8284 17.9009 50.9265 17.9825 51.0194C19.3282 52.6874 20.888 54.6705 20.888 56.1267C20.8853 57.3193 20.4158 58.462 19.5825 59.3042C18.7492 60.1465 17.6202 60.6195 16.4431 60.6195L16.4278 60.604Z" fill="#3F3F41"/>
</svg>
